<svg width="28" height="28" viewBox="0 0 28 28" fill="none" xmlns="http://www.w3.org/2000/svg">
<path d="M15.2698 12.8563C15.7161 12.2185 16.2194 11.678 16.8461 11.2523C18.1193 10.3874 19.5413 10.203 21.0306 10.3407C22.0023 10.4309 22.9337 10.6636 23.7574 11.2143C24.9001 11.9787 25.4651 13.1127 25.7785 14.4033C26.0673 15.5903 26.1219 16.8018 26.1251 18.0157C26.1322 20.8668 26.1251 23.7179 26.1322 26.5698C26.133 26.7858 26.0879 26.8507 25.86 26.8491C24.3604 26.8381 22.8601 26.8381 21.3606 26.8491C21.1366 26.8507 21.0883 26.7922 21.0883 26.5738C21.0955 23.8603 21.0939 21.1477 21.0868 18.4343C21.0852 17.8725 21.0448 17.3122 20.9332 16.7575C20.5946 15.0839 19.5152 14.545 18.0022 14.723C16.5865 14.89 15.8213 15.7264 15.5926 17.2513C15.5088 17.8084 15.4771 18.3686 15.4779 18.932C15.4803 21.4872 15.4755 24.0424 15.4842 26.5975C15.485 26.8254 15.4328 26.8911 15.1962 26.8895C13.7062 26.8776 12.2161 26.88 10.7268 26.8879C10.5243 26.8887 10.4396 26.865 10.4396 26.6244C10.4475 21.3954 10.4475 16.1664 10.4404 10.9374C10.4404 10.719 10.5116 10.6826 10.7086 10.6834C12.1393 10.6913 13.57 10.6936 15.0007 10.6818C15.2334 10.6802 15.2777 10.7554 15.273 10.9674C15.2611 11.5981 15.2698 12.2272 15.2698 12.8563Z" fill="#44C4EC"/>
<path d="M2.26659 18.7986C2.26659 16.1952 2.26975 13.5918 2.26105 10.9883C2.26026 10.743 2.32119 10.6797 2.56808 10.6821C4.04705 10.6948 5.52681 10.6924 7.00578 10.6837C7.22418 10.6821 7.30648 10.7193 7.30569 10.9678C7.29698 16.1841 7.29777 21.4013 7.30489 26.6176C7.30489 26.8447 7.24238 26.8922 7.02556 26.8906C5.52681 26.8811 4.02726 26.8795 2.52851 26.8922C2.29191 26.8946 2.26105 26.817 2.26184 26.6089C2.26896 24.0055 2.26659 21.4021 2.26659 18.7986Z" fill="#44C4EC"/>
<path d="M7.68812 5.54283C7.68416 7.16741 6.36346 8.48811 4.7555 8.47862C3.17287 8.46833 1.85691 7.12309 1.86641 5.52463C1.8759 3.93646 3.18712 2.62921 4.7737 2.62525C6.37691 2.6213 7.69287 3.93884 7.68812 5.54283Z" fill="#44C4EC"/>
</svg>
