<svg width="28" height="29" viewBox="0 0 28 29" fill="none" xmlns="http://www.w3.org/2000/svg">
<path d="M15.2696 12.9757C15.7159 12.3379 16.2192 11.7974 16.8459 11.3717C18.1192 10.5068 19.5412 10.3224 21.0304 10.4601C22.0022 10.5503 22.9335 10.783 23.7573 11.3337C24.9 12.0981 25.465 13.2321 25.7783 14.5227C26.0671 15.7097 26.1217 16.9212 26.1249 18.1351C26.132 20.9862 26.1249 23.8373 26.132 26.6892C26.1328 26.9052 26.0877 26.9701 25.8598 26.9685C24.3603 26.9575 22.8599 26.9575 21.3604 26.9685C21.1365 26.9701 21.0882 26.9116 21.0882 26.6932C21.0953 23.9797 21.0937 21.2671 21.0866 18.5537C21.085 17.9918 21.0447 17.4316 20.9331 16.8769C20.5944 15.2032 19.5151 14.6644 18.0021 14.8424C16.5864 15.0094 15.8212 15.8458 15.5925 17.3707C15.5086 17.9277 15.477 18.488 15.4778 19.0514C15.4801 21.6066 15.4754 24.1617 15.4841 26.7169C15.4849 26.9448 15.4327 27.0105 15.1961 27.0089C13.706 26.997 12.216 26.9994 10.7267 27.0073C10.5241 27.0081 10.4395 26.9844 10.4395 26.7438C10.4474 21.5148 10.4474 16.2858 10.4402 11.0568C10.4402 10.8383 10.5115 10.8019 10.7085 10.8027C12.1392 10.8107 13.5699 10.813 15.0006 10.8012C15.2332 10.7996 15.2776 10.8747 15.2728 11.0868C15.2609 11.7175 15.2696 12.3466 15.2696 12.9757Z" fill="white" fill-opacity="0.8"/>
<path d="M2.26629 18.9179C2.26629 16.3144 2.26945 13.711 2.26075 11.1076C2.25996 10.8623 2.32089 10.799 2.56778 10.8013C4.04675 10.814 5.52651 10.8116 7.00548 10.8029C7.22388 10.8013 7.30618 10.8385 7.30539 11.087C7.29668 16.3034 7.29748 21.5205 7.3046 26.7369C7.3046 26.964 7.24208 27.0114 7.02526 27.0099C5.52651 27.0004 4.02697 26.9988 2.52821 27.0114C2.29161 27.0138 2.26075 26.9363 2.26154 26.7281C2.26866 24.1247 2.26629 21.5213 2.26629 18.9179Z" fill="white" fill-opacity="0.8"/>
<path d="M7.68797 5.66222C7.68402 7.28679 6.36331 8.6075 4.75536 8.598C3.17272 8.58771 1.85677 7.24248 1.86626 5.64402C1.87576 4.05585 3.18697 2.74859 4.77356 2.74464C6.37676 2.74068 7.69272 4.05822 7.68797 5.66222Z" fill="white" fill-opacity="0.8"/>
</svg>
