<svg width="28" height="24" viewBox="0 0 28 24" fill="none" xmlns="http://www.w3.org/2000/svg">
<path d="M25.1228 6.59338C26.2615 5.78489 27.2193 4.77573 27.9998 3.61374V3.61257C26.958 4.06873 25.8496 4.37206 24.6923 4.51906C25.8823 3.80857 26.7911 2.69208 27.2181 1.34692C26.1086 2.00841 24.8837 2.47508 23.5782 2.73641C22.5247 1.61408 21.0232 0.919922 19.3852 0.919922C16.2072 0.919922 13.6487 3.4994 13.6487 6.66105C13.6487 7.11604 13.6872 7.55354 13.7817 7.97004C9.0101 7.73671 4.7868 5.45006 1.94949 1.96525C1.45482 2.82507 1.16316 3.80857 1.16316 4.86673C1.16316 6.85471 2.18632 8.61637 3.71347 9.63719C2.79065 9.61969 1.88649 9.35136 1.11999 8.9302V8.9932C1.11999 11.7827 3.10914 14.0997 5.71896 14.634C5.25113 14.7623 4.74247 14.823 4.21397 14.823C3.84647 14.823 3.47548 14.802 3.12781 14.725C3.87097 16.9976 5.98262 18.6695 8.49094 18.7243C6.53795 20.2515 4.05764 21.1719 1.37316 21.1719C0.902994 21.1719 0.451497 21.1509 0 21.0938C2.54332 22.7329 5.55563 23.6698 8.80594 23.6698C18.936 23.6698 25.5382 15.2185 25.1228 6.59338Z" fill="white" fill-opacity="0.8"/>
</svg>
