<svg width="28" height="28" viewBox="0 0 28 28" fill="none" xmlns="http://www.w3.org/2000/svg">
<g clip-path="url(#clip0_1_17)">
<path d="M25.1229 8.47375C26.2616 7.66526 27.2194 6.6561 27.9999 5.49411V5.49294C26.9581 5.9491 25.8497 6.25244 24.6924 6.39943C25.8824 5.68894 26.7912 4.57245 27.2182 3.22729C26.1087 3.88879 24.8838 4.35545 23.5783 4.61678C22.5248 3.49445 21.0233 2.80029 19.3853 2.80029C16.2073 2.80029 13.6488 5.37977 13.6488 8.54142C13.6488 8.99642 13.6873 9.43391 13.7818 9.85041C9.0102 9.61708 4.7869 7.33043 1.94959 3.84562C1.45492 4.70545 1.16326 5.68894 1.16326 6.7471C1.16326 8.73508 2.18642 10.4967 3.71357 11.5176C2.79075 11.5001 1.88659 11.2317 1.12009 10.8106V10.8736C1.12009 13.663 3.10924 15.98 5.71906 16.5144C5.25123 16.6427 4.74257 16.7034 4.21407 16.7034C3.84657 16.7034 3.47557 16.6824 3.12791 16.6054C3.87107 18.878 5.98272 20.5498 8.49104 20.6047C6.53805 22.1318 4.05774 23.0523 1.37326 23.0523C0.903093 23.0523 0.451596 23.0313 9.91821e-05 22.9741C2.54341 24.6133 5.55573 25.5501 8.80604 25.5501C18.9361 25.5501 25.5382 17.0989 25.1229 8.47375V8.47375Z" fill="#44C4EC"/>
</g>
<defs>
<clipPath id="clip0_1_17">
<rect width="27.9998" height="27.9998" fill="white"/>
</clipPath>
</defs>
</svg>
