<svg width="14" height="26" viewBox="0 0 14 26" fill="none" xmlns="http://www.w3.org/2000/svg">
<path d="M8.86114 19.84C8.86114 21.3763 8.86114 22.9127 8.86034 24.4483C8.86034 24.5875 8.85634 24.7275 8.84754 24.8668C8.82993 25.1276 8.7019 25.2965 8.43384 25.3357C8.31621 25.3533 8.19618 25.3677 8.07775 25.3677C6.86066 25.3701 5.64356 25.3709 4.42647 25.3685C3.83913 25.3677 3.68869 25.214 3.68869 24.6179C3.68789 21.4259 3.68309 18.234 3.69589 15.042C3.69749 14.7427 3.61187 14.6867 3.33341 14.6923C2.466 14.7115 1.59779 14.7019 0.729576 14.6979C0.151037 14.6955 0.00460111 14.5515 0.00300073 13.9689C-0.00100024 12.7919 -0.00100024 11.6148 0.00300073 10.4377C0.00460111 9.83915 0.151037 9.69752 0.747181 9.69672C1.6354 9.69592 2.52281 9.68951 3.41102 9.70152C3.62628 9.70472 3.69829 9.66391 3.69509 9.42865C3.68069 8.49323 3.66629 7.5546 3.69909 6.61757C3.76071 4.86595 4.29684 3.30878 5.69077 2.1501C6.65981 1.3443 7.80729 0.955411 9.04759 0.900998C10.2423 0.848185 11.441 0.878593 12.6381 0.880993C13.0373 0.881793 13.211 1.05063 13.2126 1.44353C13.219 2.63021 13.219 3.8177 13.2134 5.00439C13.211 5.42289 13.0462 5.57972 12.5932 5.59013C11.7858 5.60773 10.9777 5.60933 10.1695 5.62133C9.25644 5.63494 8.88115 5.99662 8.86354 6.91364C8.84754 7.74104 8.86594 8.56924 8.85394 9.39744C8.85074 9.60389 8.92356 9.6407 9.11 9.6391C10.1775 9.6311 11.2449 9.6335 12.3124 9.6359C12.9397 9.6367 13.0942 9.79034 13.095 10.4097C13.0966 11.5964 13.0966 12.7839 13.095 13.9705C13.0942 14.5235 12.9597 14.6603 12.406 14.6627C11.3489 14.6667 10.2911 14.6795 9.23403 14.6555C8.90595 14.6483 8.85234 14.7555 8.85554 15.0516C8.86834 16.6472 8.86114 18.2436 8.86114 19.84Z" fill="white" fill-opacity="0.8"/>
</svg>
