<svg width="26" height="20" viewBox="0 0 26 20" fill="none" xmlns="http://www.w3.org/2000/svg">
<path d="M21.2909 2.27786C19.7176 1.55582 18.0574 1.04048 16.3517 0.744706C16.3363 0.742103 16.3204 0.744351 16.3063 0.75114C16.2922 0.757929 16.2805 0.768925 16.2729 0.782618C16.0591 1.16174 15.8225 1.65762 15.6572 2.04584C13.8186 1.76682 11.9485 1.76682 10.1099 2.04584C9.92554 1.61337 9.71695 1.19163 9.48514 0.782618C9.47736 0.769075 9.46567 0.758205 9.45159 0.751438C9.43752 0.744671 9.42172 0.742324 9.40629 0.744706C7.70025 1.0389 6.03972 1.5545 4.46713 2.27786C4.45368 2.283 4.44242 2.29264 4.43529 2.30516C1.29012 7.00471 0.427247 11.589 0.850343 16.1157C0.85186 16.1369 0.865508 16.1581 0.882189 16.1718C2.71367 17.5284 4.76223 18.5643 6.9405 19.2351C6.95588 19.2399 6.97241 19.2397 6.98768 19.2346C7.00295 19.2294 7.01617 19.2195 7.02542 19.2062C7.4925 18.5693 7.90801 17.8975 8.2659 17.1909C8.27336 17.1763 8.27591 17.1597 8.27318 17.1436C8.27045 17.1275 8.26257 17.1127 8.25073 17.1014C8.2429 17.094 8.2336 17.0883 8.22344 17.0847C7.57008 16.8336 6.93731 16.5319 6.33088 16.1824C6.31394 16.1728 6.30134 16.1571 6.2957 16.1384C6.29005 16.1198 6.29179 16.0997 6.30055 16.0823C6.30571 16.071 6.31351 16.0611 6.3233 16.0535C6.45068 15.958 6.57806 15.8579 6.69938 15.7578C6.7101 15.7492 6.72296 15.7436 6.73658 15.7418C6.7502 15.7399 6.76408 15.7418 6.77672 15.7472C10.7484 17.5609 15.0476 17.5609 18.9707 15.7472C18.9838 15.7415 18.9982 15.7395 19.0123 15.7414C19.0265 15.7432 19.0399 15.7489 19.0511 15.7578C19.1724 15.8579 19.2998 15.958 19.4271 16.0535C19.4375 16.061 19.4458 16.071 19.4513 16.0826C19.4568 16.0941 19.4594 16.1068 19.4588 16.1196C19.4582 16.1324 19.4544 16.1448 19.4478 16.1557C19.4413 16.1667 19.4321 16.1759 19.4211 16.1824C18.816 16.5351 18.1824 16.8364 17.527 17.0832C17.5165 17.087 17.5071 17.093 17.4992 17.1009C17.4913 17.1087 17.4853 17.1182 17.4815 17.1287C17.478 17.1388 17.4766 17.1495 17.4774 17.1602C17.4782 17.1709 17.4811 17.1813 17.4861 17.1909C17.85 17.896 18.267 18.5693 18.725 19.2062C18.7343 19.2195 18.7475 19.2294 18.7628 19.2346C18.778 19.2397 18.7946 19.2399 18.8099 19.2351C20.9919 18.5663 23.0437 17.5304 24.8773 16.1718C24.8865 16.1654 24.8942 16.1571 24.8997 16.1474C24.9052 16.1377 24.9084 16.1268 24.9092 16.1157C25.4157 10.8823 24.0615 6.33594 21.3212 2.30667C21.3185 2.30002 21.3143 2.29402 21.3091 2.28905C21.3039 2.28409 21.2977 2.28028 21.2909 2.27786ZM8.85884 13.3587C7.66234 13.3587 6.67815 12.2608 6.67815 10.9142C6.67815 9.56603 7.64415 8.4681 8.85884 8.4681C10.0826 8.4681 11.0577 9.57513 11.0395 10.9142C11.0395 12.2608 10.0735 13.3587 8.85884 13.3587ZM16.9204 13.3587C15.7254 13.3587 14.7397 12.2608 14.7397 10.9142C14.7397 9.56603 15.7057 8.4681 16.9204 8.4681C18.1442 8.4681 19.1208 9.57513 19.1011 10.9142C19.1011 12.2608 18.1442 13.3587 16.9204 13.3587Z" fill="white" fill-opacity="0.8"/>
</svg>
