<svg width="28" height="28" viewBox="0 0 28 28" fill="none"
    xmlns="http://www.w3.org/2000/svg">
    <path d="M15.8613 20.7202C15.8613 22.2566 15.8613 23.7929 15.8605 25.3285C15.8605 25.4677 15.8565 25.6078 15.8477 25.747C15.83 26.0079 15.702 26.1767 15.434 26.2159C15.3163 26.2335 15.1963 26.2479 15.0779 26.2479C13.8608 26.2503 12.6437 26.2511 11.4266 26.2487C10.8392 26.2479 10.6888 26.0943 10.6888 25.4982C10.688 22.3062 10.6832 19.1142 10.696 15.9223C10.6976 15.623 10.612 15.567 10.3335 15.5726C9.46611 15.5918 8.5979 15.5822 7.72969 15.5782C7.15115 15.5758 7.00472 15.4317 7.00312 14.8492C6.99911 13.6721 6.99911 12.495 7.00312 11.3179C7.00472 10.7194 7.15115 10.5778 7.7473 10.577C8.63551 10.5762 9.52292 10.5698 10.4111 10.5818C10.6264 10.585 10.6984 10.5442 10.6952 10.3089C10.6808 9.37347 10.6664 8.43485 10.6992 7.49782C10.7608 5.7462 11.297 4.18903 12.6909 3.03035C13.6599 2.22455 14.8074 1.83566 16.0477 1.78125C17.2424 1.72843 18.4411 1.75884 19.6382 1.76124C20.0375 1.76204 20.2111 1.93088 20.2127 2.32378C20.2191 3.51046 20.2191 4.69795 20.2135 5.88463C20.2111 6.30314 20.0463 6.45997 19.5934 6.47038C18.786 6.48798 17.9778 6.48958 17.1696 6.50158C16.2566 6.51519 15.8813 6.87687 15.8637 7.79389C15.8477 8.62129 15.8661 9.44949 15.8541 10.2777C15.8509 10.4841 15.9237 10.521 16.1101 10.5194C17.1776 10.5113 18.245 10.5137 19.3125 10.5161C19.9398 10.5169 20.0943 10.6706 20.0951 11.2899C20.0967 12.4766 20.0967 13.6641 20.0951 14.8508C20.0943 15.4037 19.9598 15.5406 19.4061 15.543C18.3491 15.547 17.2912 15.5598 16.2341 15.5358C15.9061 15.5286 15.8525 15.6358 15.8557 15.9319C15.8685 17.5274 15.8613 19.1238 15.8613 20.7202Z" fill="white" fill-opacity="0.8"/>
</svg>
