<svg width="20" height="20" viewBox="0 0 20 20" fill="none" xmlns="http://www.w3.org/2000/svg">
<path fill-rule="evenodd" clip-rule="evenodd" d="M9.99824 3.77002C10.4125 3.77002 10.7482 4.10581 10.7482 4.52002L10.7482 13.9094L14.2679 10.3897C14.5608 10.0968 15.0357 10.0968 15.3286 10.3897C15.6215 10.6826 15.6215 11.1575 15.3286 11.4504L10.5286 16.2504C10.3879 16.391 10.1972 16.47 9.99824 16.47C9.79933 16.47 9.60856 16.391 9.46791 16.2504L4.66791 11.4503C4.37502 11.1575 4.37502 10.6826 4.66791 10.3897C4.9608 10.0968 5.43568 10.0968 5.72857 10.3897L9.24824 13.9094L9.24824 4.52002C9.24824 4.10581 9.58403 3.77002 9.99824 3.77002Z" fill="white"/>
</svg>
