<svg width="28" height="28" viewBox="0 0 28 28" fill="none" xmlns="http://www.w3.org/2000/svg">
<path fill-rule="evenodd" clip-rule="evenodd" d="M5.54785 14.0016C5.54785 13.5873 5.88364 13.2516 6.29785 13.2516L19.8872 13.2516L14.5675 7.93189C14.2746 7.639 14.2746 7.16413 14.5675 6.87123C14.8604 6.57834 15.3353 6.57834 15.6282 6.87123L22.2282 13.4712C22.3688 13.6119 22.4479 13.8027 22.4479 14.0016C22.4479 14.2005 22.3688 14.3912 22.2282 14.5319L15.6282 21.1319C15.3353 21.4248 14.8604 21.4248 14.5675 21.1319C14.2746 20.839 14.2746 20.3641 14.5675 20.0712L19.8872 14.7516L6.29785 14.7516C5.88364 14.7516 5.54785 14.4158 5.54785 14.0016Z" fill="white"/>
</svg>
