<svg width="28" height="28" viewBox="0 0 28 28" fill="none" xmlns="http://www.w3.org/2000/svg">
<path fill-rule="evenodd" clip-rule="evenodd" d="M22.4482 14.0009C22.4482 14.4151 22.1125 14.7509 21.6982 14.7509L8.1089 14.7509L13.4286 20.0705C13.7215 20.3634 13.7215 20.8383 13.4286 21.1312C13.1357 21.4241 12.6608 21.4241 12.3679 21.1312L5.76791 14.5312C5.62726 14.3906 5.54824 14.1998 5.54824 14.0009C5.54824 13.802 5.62726 13.6112 5.76791 13.4705L12.3679 6.87055C12.6608 6.57766 13.1357 6.57766 13.4286 6.87055C13.7215 7.16344 13.7215 7.63832 13.4286 7.93121L8.1089 13.2509L21.6982 13.2509C22.1125 13.2509 22.4482 13.5867 22.4482 14.0009Z" fill="white"/>
</svg>
