<svg width="221" height="58" viewBox="0 0 221 58" fill="none" xmlns="http://www.w3.org/2000/svg">
<path d="M45.6827 33.6812L29.8539 57.0707H0L35.7598 2.28266L36.2422 1.5367C36.7325 0.948075 37.3872 0.515399 38.1245 0.292694C38.8618 0.069989 39.6491 0.0671243 40.3881 0.284457C41.1271 0.501791 41.785 0.929691 42.2797 1.51473C42.7743 2.09977 43.0838 2.81602 43.1696 3.57406C43.1696 3.71843 43.1696 3.86683 43.1696 4.02324V4.13152L45.6827 33.6812Z" fill="url(#paint0_linear_616_823)"/>
<path d="M69.952 0.119649C69.7181 0.118872 69.4846 0.14036 69.2548 0.183818C68.8964 0.280934 68.5466 0.407022 68.209 0.560809C68.0376 0.634873 67.8722 0.722032 67.7145 0.821495C67.0041 1.25676 66.4103 1.85523 65.9837 2.56608L46 33.6799L47.4471 57.0694H73.8798V4.00186C73.8798 3.4917 73.7782 2.98655 73.5808 2.51527C73.3833 2.044 73.0939 1.61585 72.7292 1.2553C72.3644 0.894754 71.9313 0.608876 71.4548 0.414013C70.9783 0.21915 70.4676 0.119122 69.952 0.119649Z" fill="url(#paint1_linear_616_823)"/>
<path d="M104.787 1.38023C105.045 0.95919 105.423 0.622935 105.873 0.413692C106.291 0.221487 106.746 0.121584 107.207 0.120922C107.454 0.111103 107.7 0.157314 107.926 0.25602C108.152 0.354727 108.353 0.503314 108.512 0.690419C108.859 1.11881 109.035 1.65822 109.006 2.20641V16.7847L119.367 1.38023C119.62 0.960941 119.992 0.62474 120.437 0.413692C120.859 0.217672 121.321 0.117637 121.787 0.120922C122.033 0.111721 122.279 0.158232 122.504 0.256917C122.73 0.355602 122.929 0.503861 123.088 0.690419C123.438 1.11751 123.615 1.6575 123.587 2.20641V24.2403H119.367V8.06982L109.939 22.8006C109.665 23.2745 109.267 23.6666 108.787 23.9355C108.395 24.1346 107.96 24.239 107.519 24.2403C107.158 24.2434 106.8 24.1767 106.465 24.0438C106.14 23.9119 105.844 23.7185 105.593 23.4743C105.345 23.2268 105.146 22.9358 105.006 22.6161C104.855 22.2664 104.78 21.8892 104.787 21.5092V8.06982L94.4462 24.2403H89.4199L104.787 1.38023ZM127.182 24.2403V0.305407H131.402V24.2403H127.182ZM153.124 24.2403H147.218L140.798 17.5227C140.469 17.1895 140.184 16.8177 139.947 16.4158C139.757 16.0998 139.655 15.7402 139.651 15.373C139.651 14.0656 140.488 13.349 142.164 13.2234C144.418 13.063 146.088 12.6191 147.174 11.8919C148.26 11.1646 148.801 10.0644 148.795 8.59119C148.795 7.21959 148.39 6.18487 147.539 5.50708C146.687 4.8293 145.512 4.47637 143.955 4.47637H139.31V24.2403H135.09V0.305407H144.057C145.267 0.298521 146.471 0.479872 147.624 0.84282C148.685 1.16984 149.67 1.70143 150.522 2.40693C151.352 3.10924 152.015 3.98435 152.464 4.96967C152.956 6.08134 153.198 7.28556 153.173 8.49895C153.172 9.32838 153.052 10.1535 152.816 10.9494C152.558 11.8073 152.137 12.6088 151.576 13.3116C150.94 14.0979 150.16 14.759 149.278 15.2607C148.177 15.8841 146.967 16.2926 145.711 16.4639L153.124 24.2403ZM170.031 1.38023C170.281 0.962699 170.649 0.626678 171.089 0.413692C171.51 0.218128 171.97 0.1181 172.435 0.120922C172.68 0.111155 172.924 0.157474 173.147 0.256263C173.371 0.355052 173.568 0.503638 173.724 0.690419C174.063 1.12223 174.235 1.66021 174.207 2.20641V24.2403H170.019V8.06982L159.659 24.2403H154.632L170.031 1.38023ZM189.488 24.2403C187.793 24.2621 186.111 23.9443 184.543 23.3059C183.095 22.7168 181.786 21.839 180.696 20.7271C179.614 19.6079 178.766 18.2887 178.199 16.8449C177.592 15.3121 177.287 13.6785 177.299 12.0322C177.279 10.405 177.579 8.78938 178.183 7.27573C178.742 5.88616 179.586 4.62686 180.664 3.57801C181.765 2.52288 183.075 1.70372 184.511 1.17168C186.093 0.582853 187.773 0.289141 189.464 0.305407H192.998V4.47637H189.464C188.364 4.46514 187.273 4.6696 186.254 5.07796C185.306 5.45472 184.442 6.01205 183.712 6.71827C182.987 7.43134 182.416 8.28277 182.034 9.22085C181.627 10.2198 181.421 11.288 181.43 12.3651C181.414 13.4255 181.608 14.4788 182.001 15.4653C182.377 16.3899 182.944 17.2266 183.665 17.9215C184.387 18.6164 185.248 19.154 186.193 19.4999C187.229 19.8873 188.328 20.0804 189.435 20.0694H192.97V24.2403H189.488ZM195.601 24.2403V0.305407H199.788V20.0694H206.322V24.2403H195.601ZM221 24.2403H208.973V0.305407H220.793V4.47637H213.213V10.035H219.756V14.1779H213.213V20.0694H220.996L221 24.2403ZM107.75 48.2475C107.63 47.7124 107.437 47.1958 107.178 46.7114C106.892 46.2058 106.53 45.746 106.104 45.3478C105.625 44.9094 105.077 44.5505 104.483 44.285C105.028 44.0524 105.523 43.7189 105.942 43.3025C106.326 42.9383 106.643 42.5108 106.878 42.0391C107.103 41.5804 107.268 41.0952 107.369 40.5953C107.469 40.1163 107.522 39.6287 107.527 39.1395C107.527 37.054 106.812 35.4966 105.383 34.4672C103.96 33.4526 101.892 32.9312 99.1807 32.9312H91.0129V56.8701H98.2687C99.7167 56.8976 101.161 56.7111 102.553 56.3167C103.647 56.0113 104.67 55.4977 105.565 54.8047C106.327 54.2015 106.933 53.4275 107.332 52.5468C107.714 51.6747 107.909 50.7338 107.904 49.7835C107.906 49.2676 107.855 48.7528 107.75 48.2475ZM95.2569 37.0741H98.9497C100.616 37.0741 101.787 37.2907 102.5 37.7198C102.843 37.9504 103.118 38.2667 103.297 38.6366C103.475 39.0065 103.552 39.4167 103.518 39.8253C103.518 40.8039 103.267 41.5298 102.752 41.9669C102.146 42.4546 101.375 42.6968 100.595 42.6447H95.2569V37.0741ZM102.5 51.9933C101.391 52.5073 100.174 52.752 98.9497 52.7072H95.2569V46.8037H100.616C101.456 46.7726 102.28 47.0368 102.942 47.5496C103.571 48.0349 103.879 48.7769 103.879 49.7835C103.894 50.2477 103.769 50.7059 103.52 51.0996C103.271 51.4933 102.909 51.8044 102.48 51.9933H102.5ZM111.045 56.9062V32.9673H115.232V52.7312H121.807V56.9062H111.045ZM147.052 39.9978C146.498 38.6053 145.659 37.341 144.588 36.284C143.491 35.2171 142.183 34.3868 140.745 33.8456C139.146 33.2434 137.446 32.9454 135.735 32.9673H134.981C133.29 32.9407 131.609 33.2263 130.024 33.8095C128.586 34.3418 127.274 35.1609 126.169 36.2158C125.097 37.2738 124.256 38.5377 123.696 39.9296C123.087 41.4321 122.783 43.0391 122.804 44.658C122.792 46.3043 123.098 47.9377 123.704 49.4707C124.28 50.9156 125.136 52.2346 126.226 53.3529C127.318 54.4694 128.63 55.3525 130.08 55.9477C131.633 56.5871 133.299 56.9117 134.981 56.9022H135.698C137.378 56.921 139.043 56.6032 140.595 55.9678C142.048 55.3697 143.363 54.487 144.462 53.3729C145.554 52.2576 146.41 50.9377 146.979 49.4907C147.595 47.9602 147.902 46.3253 147.883 44.6781C147.905 43.0784 147.616 41.4896 147.032 39.9978H147.052ZM143.161 48.0991C142.796 49.0138 142.244 49.844 141.54 50.5375C140.815 51.2319 139.958 51.7772 139.018 52.1417C137.972 52.5337 136.861 52.7282 135.743 52.7152H134.981C133.874 52.7323 132.773 52.5404 131.738 52.1497C130.794 51.7875 129.933 51.2421 129.205 50.5455C128.502 49.8419 127.944 49.0096 127.563 48.0951C126.766 46.0729 126.775 43.8266 127.587 41.8105C127.965 40.8789 128.532 40.0339 129.253 39.328C129.979 38.6227 130.839 38.0665 131.783 37.6917C132.803 37.3066 133.889 37.12 134.981 37.1423H135.698C136.795 37.1313 137.883 37.3274 138.905 37.7198C139.857 38.0884 140.723 38.6472 141.447 39.3614C142.172 40.0755 142.74 40.9297 143.116 41.8707C143.511 42.8779 143.708 43.9506 143.696 45.031C143.709 46.0793 143.521 47.1205 143.141 48.0991H143.161ZM162.78 56.9223C161.083 56.942 159.4 56.6228 157.83 55.9838C156.384 55.3954 155.075 54.5174 153.988 53.405C152.906 52.2858 152.057 50.9666 151.491 49.5228C150.883 47.9901 150.578 46.3565 150.591 44.7102C150.568 43.0827 150.868 41.4666 151.475 39.9537C152.035 38.5648 152.879 37.3058 153.955 36.2559C155.057 35.2008 156.366 34.3816 157.802 33.8496C159.393 33.2606 161.081 32.9695 162.78 32.9913H166.314V37.1423H162.78C161.68 37.1296 160.589 37.3328 159.569 37.7398C158.621 38.1175 157.756 38.6747 157.024 39.3801C156.301 40.0941 155.731 40.9454 155.35 41.8827C154.943 42.8816 154.737 43.9499 154.746 45.027C154.735 46.0885 154.935 47.1418 155.334 48.1271C155.709 49.0518 156.276 49.8885 156.998 50.5834C157.719 51.2783 158.58 51.8159 159.525 52.1618C160.561 52.5491 161.66 52.7423 162.768 52.7312H166.302V56.9062L162.78 56.9223ZM178.969 47.2528L173.327 55.8474C173.084 56.2746 172.709 56.6134 172.257 56.814C171.829 56.9876 171.37 57.0762 170.907 57.0747C170.662 57.0835 170.417 57.0385 170.192 56.9428C169.966 56.8471 169.765 56.7031 169.602 56.5212C169.254 56.098 169.078 55.5619 169.107 55.0173V32.9673H173.327V49.1418L183.663 32.9673H188.69L181.462 43.523L191.324 56.9062H185.617L178.969 47.2528Z" fill="url(#paint2_linear_616_823)"/>
<defs>
<linearGradient id="paint0_linear_616_823" x1="22.8414" y1="0.120976" x2="22.8414" y2="57.0587" gradientUnits="userSpaceOnUse">
<stop stop-color="#FBC61D"/>
<stop offset="0.16" stop-color="#FABA1E"/>
<stop offset="0.45" stop-color="#F69B20"/>
<stop offset="0.83" stop-color="#F16A23"/>
<stop offset="1" stop-color="#EE5225"/>
</linearGradient>
<linearGradient id="paint1_linear_616_823" x1="59.9399" y1="0.119649" x2="59.9399" y2="57.0574" gradientUnits="userSpaceOnUse">
<stop stop-color="#FBC61D"/>
<stop offset="0.16" stop-color="#FABA1E"/>
<stop offset="0.45" stop-color="#F69B20"/>
<stop offset="0.83" stop-color="#F16A23"/>
<stop offset="1" stop-color="#EE5225"/>
</linearGradient>
<linearGradient id="paint2_linear_616_823" x1="89.4037" y1="28.5878" x2="220.976" y2="28.5878" gradientUnits="userSpaceOnUse">
<stop stop-color="#FBC61D"/>
<stop offset="0.16" stop-color="#FABA1E"/>
<stop offset="0.45" stop-color="#F69B20"/>
<stop offset="0.83" stop-color="#F16A23"/>
<stop offset="1" stop-color="#EE5225"/>
</linearGradient>
</defs>
</svg>
