<svg width="153" height="29" viewBox="0 0 153 29" fill="none" xmlns="http://www.w3.org/2000/svg">
<g clip-path="url(#clip0_736_169)">
<path d="M35.6416 7.61914H39.0865V22.9234H35.6416V7.61914Z" fill="white"/>
<path d="M41.8564 17.1158C41.8564 16.2766 41.9891 15.489 42.2542 14.7528C42.5339 14.002 42.9314 13.3542 43.4466 12.8094C43.9619 12.25 44.5876 11.8083 45.3238 11.4844C46.06 11.1605 46.8991 10.9985 47.8413 10.9985C48.4597 10.9985 49.0264 11.0574 49.5417 11.1752C50.057 11.2783 50.5576 11.4329 51.0436 11.639L50.3588 14.267C50.0496 14.1492 49.7112 14.0461 49.343 13.9578C48.975 13.8695 48.5626 13.8253 48.1064 13.8253C47.1346 13.8253 46.4058 14.1271 45.92 14.7307C45.4489 15.3344 45.2133 16.1294 45.2133 17.1158C45.2133 18.1611 45.4343 18.9709 45.8759 19.5451C46.3324 20.1193 47.12 20.4063 48.2388 20.4063C48.6363 20.4063 49.0633 20.3695 49.5198 20.2959C49.976 20.2223 50.3957 20.1045 50.7785 19.9426L51.2423 22.6368C50.8595 22.7988 50.381 22.9386 49.8068 23.0564C49.2325 23.1742 48.5995 23.2331 47.9076 23.2331C46.8476 23.2331 45.9346 23.0785 45.1692 22.7693C44.4035 22.4454 43.7704 22.0111 43.2698 21.4664C42.7841 20.9216 42.4234 20.2812 42.1878 19.5451C41.9669 18.7942 41.8564 17.9844 41.8564 17.1158Z" fill="white"/>
<path d="M52.3379 17.2041C52.3379 16.1735 52.4925 15.2755 52.8014 14.5099C53.1255 13.7296 53.545 13.0818 54.0605 12.5665C54.5757 12.0512 55.1646 11.6611 55.8272 11.396C56.5044 11.131 57.1964 10.9985 57.9031 10.9985C59.552 10.9985 60.8549 11.5065 61.8118 12.5223C62.7689 13.5235 63.2474 15.0031 63.2474 16.9612C63.2474 17.1526 63.24 17.3661 63.2252 17.6017C63.2105 17.8225 63.1959 18.0213 63.181 18.1979H55.7167C55.7904 18.8752 56.1069 19.4125 56.6663 19.8101C57.2257 20.2076 57.9765 20.4063 58.9187 20.4063C59.5225 20.4063 60.1114 20.3548 60.6854 20.2517C61.2746 20.134 61.753 19.9941 62.121 19.8321L62.5626 22.5043C62.3861 22.5926 62.1505 22.681 61.8559 22.7693C61.5616 22.8577 61.2302 22.9313 60.8622 22.9902C60.5089 23.0638 60.126 23.1227 59.7139 23.1668C59.3016 23.211 58.8895 23.2331 58.4771 23.2331C57.432 23.2331 56.519 23.0785 55.7387 22.7693C54.9732 22.4601 54.3328 22.0405 53.8173 21.5105C53.317 20.9658 52.9414 20.3254 52.6912 19.5892C52.4557 18.8531 52.3379 18.0581 52.3379 17.2041ZM60.0673 15.9454C60.0524 15.6656 60.0009 15.3933 59.9127 15.1282C59.839 14.8632 59.7139 14.6277 59.5371 14.4216C59.3752 14.2154 59.1619 14.0461 58.8968 13.9136C58.6466 13.7811 58.3298 13.7149 57.9472 13.7149C57.579 13.7149 57.2625 13.7811 56.9974 13.9136C56.7326 14.0314 56.5117 14.1934 56.3351 14.3995C56.1583 14.6056 56.0186 14.8485 55.9154 15.1282C55.8272 15.3933 55.7608 15.6656 55.7167 15.9454H60.0673Z" fill="white"/>
<path d="M65.6758 8.41478L68.9663 7.88477V11.3078H72.9194V14.0462H68.9663V18.1318C68.9663 18.8237 69.0841 19.3758 69.3197 19.7881C69.5701 20.2003 70.0632 20.4064 70.7994 20.4064C71.1527 20.4064 71.5134 20.377 71.8816 20.3181C72.2642 20.2444 72.6102 20.1488 72.9194 20.031L73.3832 22.5927C72.9858 22.7547 72.5441 22.8945 72.0581 23.0123C71.5724 23.1301 70.9762 23.189 70.2692 23.189C69.3714 23.189 68.6279 23.0712 68.039 22.8356C67.4501 22.5854 66.9789 22.2467 66.6256 21.8198C66.2722 21.3781 66.0218 20.8481 65.8745 20.2297C65.7421 19.6114 65.6758 18.9268 65.6758 18.1759V8.41478Z" fill="white"/>
<path d="M74.6152 17.2041C74.6152 16.1735 74.7698 15.2755 75.079 14.5099C75.4029 13.7296 75.8225 13.0818 76.3378 12.5665C76.8531 12.0512 77.442 11.6611 78.1045 11.396C78.7819 11.131 79.4737 10.9985 80.1804 10.9985C81.8294 10.9985 83.1323 11.5065 84.0894 12.5223C85.0463 13.5235 85.5247 15.0031 85.5247 16.9612C85.5247 17.1526 85.5174 17.3661 85.5028 17.6017C85.4881 17.8225 85.4732 18.0213 85.4586 18.1979H77.9941C78.0677 18.8752 78.3842 19.4125 78.9439 19.8101C79.5033 20.2076 80.2541 20.4063 81.1963 20.4063C81.8001 20.4063 82.389 20.3548 82.963 20.2517C83.5519 20.134 84.0304 19.9941 84.3986 19.8321L84.8402 22.5043C84.6637 22.5926 84.4281 22.681 84.1335 22.7693C83.8392 22.8577 83.5078 22.9313 83.1398 22.9902C82.7865 23.0638 82.4036 23.1227 81.9913 23.1668C81.5792 23.211 81.1668 23.2331 80.7547 23.2331C79.7093 23.2331 78.7966 23.0785 78.0162 22.7693C77.2508 22.4601 76.6102 22.0405 76.0949 21.5105C75.5943 20.9658 75.219 20.3254 74.9686 19.5892C74.733 18.8531 74.6152 18.0581 74.6152 17.2041ZM82.3446 15.9454C82.33 15.6656 82.2785 15.3933 82.19 15.1282C82.1166 14.8632 81.9913 14.6277 81.8147 14.4216C81.6528 14.2154 81.4392 14.0461 81.1744 13.9136C80.9239 13.7811 80.6074 13.7149 80.2246 13.7149C79.8566 13.7149 79.5401 13.7811 79.275 13.9136C79.0099 14.0314 78.7893 14.1934 78.6125 14.3995C78.4359 14.6056 78.2959 14.8485 78.193 15.1282C78.1045 15.3933 78.0384 15.6656 77.9941 15.9454H82.3446Z" fill="white"/>
<path d="M92.5029 20.6272C92.8267 20.6272 93.1359 20.6198 93.4305 20.6051C93.7248 20.5904 93.9604 20.5683 94.1372 20.5388V18.0433C94.0045 18.0139 93.8058 17.9844 93.541 17.955C93.2759 17.9256 93.033 17.9108 92.8121 17.9108C92.5029 17.9108 92.2085 17.9329 91.9286 17.9771C91.6638 18.0065 91.4282 18.0728 91.2219 18.1758C91.0159 18.2789 90.8539 18.4188 90.7362 18.5954C90.6184 18.7721 90.5594 18.9929 90.5594 19.258C90.5594 19.7732 90.7289 20.134 91.0673 20.3401C91.4207 20.5315 91.8993 20.6272 92.5029 20.6272ZM92.2378 10.9985C93.2096 10.9985 94.0194 11.109 94.6671 11.3298C95.315 11.5506 95.8302 11.8672 96.2131 12.2794C96.6106 12.6917 96.8903 13.1922 97.0522 13.7811C97.2141 14.37 97.2951 15.0252 97.2951 15.7466V22.5926C96.8239 22.6957 96.169 22.8135 95.3296 22.946C94.4905 23.0932 93.4746 23.1668 92.2819 23.1668C91.5311 23.1668 90.8466 23.1006 90.2282 22.9681C89.6247 22.8356 89.1019 22.6221 88.6603 22.3277C88.2186 22.0185 87.8799 21.6209 87.6444 21.1351C87.4088 20.6493 87.291 20.053 87.291 19.3463C87.291 18.6691 87.4237 18.0949 87.6885 17.6237C87.9682 17.1526 88.3364 16.7772 88.7927 16.4975C89.2492 16.2177 89.7717 16.019 90.3606 15.9012C90.9495 15.7687 91.5606 15.7024 92.1937 15.7024C92.6207 15.7024 92.9962 15.7245 93.32 15.7687C93.6587 15.7981 93.9309 15.8423 94.1372 15.9012V15.592C94.1372 15.0326 93.9677 14.5835 93.6292 14.2449C93.2905 13.9063 92.7016 13.7369 91.8625 13.7369C91.3029 13.7369 90.7508 13.7811 90.206 13.8695C89.6615 13.9431 89.1904 14.0535 88.7927 14.2007L88.3732 11.5506C88.5647 11.4918 88.8002 11.4329 89.0799 11.374C89.3743 11.3004 89.6908 11.2415 90.0295 11.1973C90.3682 11.1384 90.7215 11.0942 91.0895 11.0648C91.4724 11.0206 91.8552 10.9985 92.2378 10.9985Z" fill="white"/>
<path d="M116.022 19.9641V22.9234H105.797V7.61914H109.242V19.9641H116.022Z" fill="white"/>
<path d="M122.719 20.6272C123.043 20.6272 123.352 20.6198 123.646 20.6051C123.941 20.5904 124.176 20.5683 124.353 20.5388V18.0433C124.22 18.0139 124.022 17.9844 123.757 17.955C123.491 17.9256 123.249 17.9108 123.028 17.9108C122.719 17.9108 122.424 17.9329 122.144 17.9771C121.879 18.0065 121.644 18.0728 121.438 18.1758C121.232 18.2789 121.07 18.4188 120.952 18.5954C120.834 18.7721 120.775 18.9929 120.775 19.258C120.775 19.7732 120.944 20.134 121.283 20.3401C121.636 20.5315 122.115 20.6272 122.719 20.6272ZM122.454 10.9985C123.425 10.9985 124.235 11.109 124.883 11.3298C125.531 11.5506 126.046 11.8672 126.429 12.2794C126.826 12.6917 127.106 13.1922 127.268 13.7811C127.43 14.37 127.511 15.0252 127.511 15.7466V22.5926C127.04 22.6957 126.385 22.8135 125.545 22.946C124.706 23.0932 123.69 23.1668 122.498 23.1668C121.747 23.1668 121.062 23.1006 120.444 22.9681C119.84 22.8356 119.318 22.6221 118.876 22.3277C118.434 22.0185 118.096 21.6209 117.86 21.1351C117.625 20.6493 117.507 20.053 117.507 19.3463C117.507 18.6691 117.639 18.0949 117.904 17.6237C118.184 17.1526 118.552 16.7772 119.008 16.4975C119.465 16.2177 119.988 16.019 120.576 15.9012C121.165 15.7687 121.776 15.7024 122.409 15.7024C122.836 15.7024 123.212 15.7245 123.536 15.7687C123.874 15.7981 124.147 15.8423 124.353 15.9012V15.592C124.353 15.0326 124.184 14.5835 123.845 14.2449C123.506 13.9063 122.917 13.7369 122.078 13.7369C121.519 13.7369 120.967 13.7811 120.422 13.8695C119.877 13.9431 119.406 14.0535 119.008 14.2007L118.589 11.5506C118.78 11.4918 119.016 11.4329 119.295 11.374C119.59 11.3004 119.907 11.2415 120.245 11.1973C120.584 11.1384 120.937 11.0942 121.305 11.0648C121.688 11.0206 122.071 10.9985 122.454 10.9985Z" fill="white"/>
<path d="M137.928 17.0279C137.928 14.9078 137.148 13.8478 135.588 13.8478C135.249 13.8478 134.91 13.892 134.572 13.9803C134.248 14.0686 133.983 14.179 133.777 14.3116V20.2963C133.939 20.3258 134.145 20.3552 134.395 20.3847C134.645 20.3994 134.918 20.4067 135.212 20.4067C136.11 20.4067 136.787 20.0976 137.244 19.4792C137.7 18.8609 137.928 18.0437 137.928 17.0279ZM141.285 17.1162C141.285 18.0437 141.145 18.8829 140.866 19.6338C140.601 20.3847 140.211 21.0251 139.695 21.5551C139.18 22.0851 138.547 22.4974 137.796 22.7918C137.045 23.0715 136.191 23.2114 135.234 23.2114C134.837 23.2114 134.417 23.1893 133.976 23.1452C133.549 23.1157 133.122 23.0715 132.695 23.0127C132.282 22.9538 131.885 22.8875 131.502 22.8139C131.119 22.7256 130.781 22.6372 130.486 22.5489V6.31712L133.777 5.78711V11.5731C134.145 11.4112 134.528 11.286 134.925 11.1977C135.323 11.1094 135.75 11.0652 136.206 11.0652C137.03 11.0652 137.759 11.2124 138.392 11.5069C139.025 11.7866 139.555 12.1915 139.982 12.7215C140.409 13.2515 140.733 13.892 140.954 14.6428C141.175 15.3789 141.285 16.2034 141.285 17.1162Z" fill="white"/>
<path d="M147.148 20.5609C147.752 20.5609 148.179 20.502 148.429 20.3842C148.679 20.2665 148.805 20.0383 148.805 19.6997C148.805 19.4346 148.642 19.2064 148.319 19.015C147.995 18.8089 147.501 18.5807 146.839 18.3304C146.324 18.139 145.852 17.9403 145.426 17.7342C145.013 17.5281 144.66 17.2851 144.365 17.0054C144.071 16.7109 143.843 16.3649 143.681 15.9674C143.519 15.5699 143.438 15.0915 143.438 14.532C143.438 13.4425 143.843 12.5812 144.653 11.9481C145.462 11.3151 146.574 10.9985 147.987 10.9985C148.694 10.9985 149.371 11.0648 150.019 11.1973C150.667 11.3151 151.182 11.4476 151.565 11.5948L150.991 14.1565C150.608 14.024 150.188 13.9063 149.732 13.8032C149.29 13.7002 148.79 13.6486 148.23 13.6486C147.2 13.6486 146.685 13.9357 146.685 14.5099C146.685 14.6424 146.706 14.7602 146.751 14.8632C146.795 14.9663 146.883 15.0694 147.016 15.1724C147.148 15.2608 147.325 15.3638 147.546 15.4816C147.781 15.5846 148.076 15.7024 148.429 15.8349C149.15 16.1 149.747 16.3649 150.218 16.63C150.689 16.8803 151.057 17.16 151.322 17.4692C151.602 17.7636 151.793 18.0949 151.896 18.4629C152.014 18.831 152.073 19.258 152.073 19.7438C152.073 20.8922 151.639 21.7608 150.77 22.3497C149.916 22.9386 148.701 23.2331 147.126 23.2331C146.096 23.2331 145.234 23.1448 144.542 22.9681C143.865 22.7914 143.394 22.6442 143.129 22.5264L143.681 19.8542C144.24 20.0751 144.815 20.2517 145.404 20.3842C145.992 20.502 146.574 20.5609 147.148 20.5609Z" fill="white"/>
<path d="M14.3606 28.0631C21.8781 28.0631 27.9723 21.9689 27.9723 14.4514C27.9723 6.93395 21.8781 0.839844 14.3606 0.839844C6.84313 0.839844 0.749023 6.93395 0.749023 14.4514C0.749023 21.9689 6.84313 28.0631 14.3606 28.0631Z" fill="white"/>
<path fill-rule="evenodd" clip-rule="evenodd" d="M13.7636 16.2036H18.4932C18.8841 16.2036 19.208 16.5099 19.208 16.9183V21.648C19.208 22.0389 18.9017 22.3628 18.4932 22.3628H13.7636C13.3727 22.3628 13.0488 22.0565 13.0488 21.648V16.8843C13.0488 16.5099 13.3387 16.2036 13.7636 16.2036Z" fill="#00C7F4"/>
<path fill-rule="evenodd" clip-rule="evenodd" d="M16.0957 13.1071L18.9535 9.31285C19.2082 9.00654 19.6342 8.922 19.9405 9.1767L23.7348 12.0345C24.0411 12.2892 24.1256 12.7152 23.8709 13.0215L21.0131 16.7818C20.7584 17.0881 20.3324 17.1726 20.0261 16.9179L16.2318 14.0601C15.9255 13.8394 15.875 13.4134 16.0957 13.1071Z" fill="#00C7F4"/>
<path fill-rule="evenodd" clip-rule="evenodd" d="M8.1153 15.2166L12.3521 17.3608C12.7089 17.531 12.845 17.9734 12.6584 18.2962L10.5142 22.5329C10.344 22.8897 9.90158 23.0259 9.57878 22.8392L5.34206 20.6951C4.98524 20.5249 4.8491 20.0824 5.03575 19.7597L7.17992 15.5229C7.35008 15.165 7.75851 15.0289 8.1153 15.2166Z" fill="#00C7F4"/>
</g>
<defs>
<clipPath id="clip0_736_169">
<rect width="151.324" height="27.7428" fill="white" transform="translate(0.749023 0.587402)"/>
</clipPath>
</defs>
</svg>
