<svg width="524" height="53" viewBox="0 0 524 53" fill="none" xmlns="http://www.w3.org/2000/svg">
<path d="M32.7985 3.54818C33.349 2.65099 34.1557 1.93447 35.1171 1.4886C36.0088 1.07903 36.9801 0.866147 37.9635 0.864737C38.4908 0.843815 39.0159 0.942285 39.4988 1.15262C39.9816 1.36295 40.4094 1.67957 40.7493 2.07827C41.4897 2.99112 41.8652 4.14053 41.8048 5.30865V36.3734L63.9185 3.54818C64.4582 2.65472 65.2527 1.93831 66.2025 1.4886C67.1037 1.0709 68.0881 0.857738 69.0835 0.864737C69.6094 0.845132 70.1328 0.944241 70.6141 1.15453C71.0953 1.36481 71.5217 1.68074 71.8607 2.07827C72.607 2.98835 72.9861 4.13901 72.9249 5.30865V52.2603H63.9185V17.8029L43.7947 49.1923C43.211 50.2022 42.3621 51.0378 41.3376 51.6108C40.4994 52.035 39.5715 52.2576 38.6297 52.2603C37.8594 52.2669 37.0952 52.1247 36.3802 51.8416C35.6861 51.5605 35.0543 51.1483 34.5201 50.6281C33.9906 50.1007 33.5652 49.4805 33.2656 48.7992C32.9442 48.054 32.7851 47.2504 32.7985 46.4405V17.8029L10.7281 52.2603H0L32.7985 3.54818ZM80.5989 52.2603V1.25785H89.6053V52.2603H80.5989ZM135.97 52.2603H123.364L109.66 37.9458C108.959 37.2358 108.349 36.4437 107.843 35.5871C107.439 34.9139 107.221 34.1477 107.211 33.3652C107.211 30.5792 108.999 29.0523 112.575 28.7845C117.386 28.4427 120.95 27.4969 123.269 25.9472C125.588 24.3976 126.741 22.0531 126.73 18.9139C126.73 15.9911 125.864 13.7863 124.048 12.342C122.231 10.8977 119.722 10.1457 116.399 10.1457H106.485V52.2603H97.4782V1.25785H116.616C119.199 1.24318 121.768 1.62962 124.229 2.40302C126.494 3.09985 128.596 4.23261 130.415 5.73595C132.187 7.2325 133.602 9.09724 134.559 11.1968C135.61 13.5657 136.126 16.1317 136.073 18.7173C136.072 20.4847 135.815 22.2429 135.312 23.9389C134.76 25.767 133.861 27.475 132.665 28.9725C131.307 30.6479 129.643 32.0568 127.759 33.1259C125.411 34.4542 122.826 35.3246 120.146 35.6897L135.97 52.2603ZM172.056 3.54818C172.588 2.65847 173.373 1.94244 174.314 1.4886C175.212 1.07187 176.193 0.858725 177.186 0.864737C177.708 0.843924 178.228 0.942625 178.706 1.15313C179.183 1.36364 179.604 1.68026 179.937 2.07827C180.661 2.99841 181.027 4.14478 180.967 5.30865V52.2603H172.03V17.8029L149.916 52.2603H139.188L172.056 3.54818ZM213.584 52.2603C209.965 52.3067 206.375 51.6294 203.029 50.2691C199.939 49.0139 197.144 47.1434 194.818 44.7741C192.509 42.3892 190.698 39.5781 189.489 36.5015C188.193 33.2353 187.541 29.7544 187.568 26.2464C187.524 22.7789 188.165 19.3362 189.454 16.1108C190.646 13.1498 192.449 10.4664 194.749 8.23138C197.1 5.98302 199.895 4.2375 202.959 3.10379C206.338 1.84906 209.922 1.22319 213.532 1.25785H221.076V10.1457H213.532C211.184 10.1217 208.855 10.5574 206.68 11.4276C204.657 12.2304 202.814 13.418 201.255 14.9229C199.708 16.4424 198.489 18.2567 197.673 20.2556C196.804 22.3842 196.366 24.6605 196.384 26.9557C196.35 29.2153 196.764 31.4596 197.604 33.5617C198.405 35.5321 199.615 37.315 201.156 38.7957C202.696 40.2764 204.534 41.4221 206.55 42.159C208.761 42.9845 211.108 43.396 213.471 43.3725H221.015V52.2603H213.584ZM226.63 52.2603V1.25785H235.567V43.3725H249.514V52.2603H226.63ZM280.842 52.2603H255.172V1.25785H280.4V10.1457H264.222V21.9904H278.186V30.8185H264.222V43.3725H280.833L280.842 52.2603ZM345.62 33.4509C345.364 32.3108 344.953 31.2099 344.4 30.1778C343.789 29.1003 343.016 28.1206 342.107 27.2721C341.085 26.3379 339.916 25.5731 338.647 25.0074C339.81 24.5116 340.868 23.801 341.761 22.9137C342.581 22.1377 343.257 21.2268 343.76 20.2217C344.239 19.2441 344.591 18.2103 344.807 17.1451C345.021 16.1244 345.134 15.0854 345.144 14.0429C345.144 9.59901 343.619 6.28031 340.567 4.08684C337.531 1.9247 333.118 0.813721 327.33 0.813721H309.897V51.8248H325.384C328.475 51.8834 331.557 51.4859 334.529 50.6454C336.863 49.9947 339.047 48.9004 340.957 47.4236C342.583 46.1381 343.876 44.4889 344.729 42.6122C345.544 40.754 345.959 38.749 345.949 36.724C345.954 35.6247 345.844 34.5278 345.62 33.4509ZM318.956 9.64174H326.837C330.393 9.64174 332.893 10.1032 334.416 11.0176C335.147 11.509 335.734 12.1831 336.115 12.9713C336.497 13.7595 336.66 14.6336 336.588 15.5043C336.588 17.5895 336.051 19.1363 334.953 20.0678C333.658 21.107 332.014 21.6231 330.35 21.5121H318.956V9.64174ZM334.416 41.4328C332.048 42.528 329.45 43.0495 326.837 42.954H318.956V30.3743H330.393C332.187 30.308 333.946 30.8712 335.359 31.9639C336.7 32.9979 337.358 34.579 337.358 36.724C337.391 37.7132 337.125 38.6896 336.593 39.5285C336.061 40.3673 335.288 41.0304 334.373 41.4328H334.416ZM352.654 51.9017V0.89064H361.591V43.0053H375.624V51.9017H352.654ZM429.507 15.8718C428.323 12.9045 426.532 10.2104 424.246 7.95817C421.906 5.68466 419.113 3.91542 416.045 2.76221C412.631 1.47897 409.003 0.843995 405.351 0.89064H403.742C400.133 0.83396 396.544 1.44258 393.161 2.6853C390.092 3.81956 387.291 5.56487 384.933 7.81289C382.646 10.0673 380.85 12.7605 379.656 15.7265C378.355 18.9282 377.708 22.3525 377.752 25.8022C377.727 29.3101 378.378 32.7907 379.673 36.0574C380.901 39.1363 382.73 41.9469 385.054 44.3299C387.386 46.709 390.186 48.5908 393.282 49.8592C396.596 51.2217 400.153 51.9134 403.742 51.8931H405.273C408.857 51.9332 412.413 51.2559 415.724 49.9019C418.825 48.6275 421.633 46.7467 423.978 44.3727C426.309 41.9961 428.135 39.1836 429.351 36.1001C430.665 32.8387 431.32 29.3549 431.28 25.8449C431.326 22.4363 430.71 19.0506 429.463 15.8718H429.507ZM421.201 33.1347C420.422 35.0838 419.244 36.8529 417.74 38.3306C416.193 39.8104 414.364 40.9723 412.359 41.749C410.127 42.5843 407.755 42.9988 405.368 42.9711H403.742C401.378 43.0075 399.029 42.5986 396.821 41.7661C394.805 40.9943 392.967 39.832 391.413 38.3477C389.913 36.8484 388.723 35.0748 387.909 33.1261C386.208 28.8171 386.226 24.0306 387.961 19.7346C388.767 17.7493 389.977 15.9487 391.517 14.4446C393.066 12.9416 394.901 11.7565 396.916 10.9578C399.094 10.1372 401.411 9.73966 403.742 9.78701H405.273C407.613 9.76375 409.935 10.1814 412.117 11.0176C414.15 11.8031 415.997 12.9939 417.544 14.5157C419.09 16.0375 420.303 17.8577 421.106 19.8627C421.949 22.0091 422.369 24.2949 422.343 26.597C422.371 28.8308 421.969 31.0494 421.158 33.1347H421.201ZM463.075 51.9359C459.453 51.9779 455.861 51.2977 452.511 49.9361C449.423 48.6823 446.631 46.8114 444.31 44.441C442 42.0561 440.189 39.2451 438.98 36.1685C437.684 32.9024 437.032 29.4214 437.059 25.9133C437.01 22.4454 437.651 19.0018 438.945 15.7778C440.141 12.8184 441.944 10.1355 444.24 7.89835C446.591 5.64999 449.386 3.90447 452.451 2.77075C455.847 1.5156 459.449 0.895434 463.075 0.941911H470.619V9.78701H463.075C460.728 9.76013 458.399 10.1929 456.223 11.0604C454.199 11.8652 452.353 13.0525 450.79 14.5557C449.247 16.077 448.031 17.891 447.216 19.8884C446.347 22.0169 445.909 24.2933 445.927 26.5884C445.904 28.8503 446.33 31.0947 447.182 33.1945C447.983 35.1649 449.193 36.9478 450.734 38.4285C452.274 39.9092 454.112 41.0548 456.128 41.7918C458.339 42.6172 460.686 43.0288 463.049 43.0053H470.593V51.9017L463.075 51.9359ZM497.63 31.3315L485.587 49.6455C485.068 50.5558 484.267 51.2778 483.303 51.7051C482.388 52.075 481.409 52.2638 480.422 52.2606C479.898 52.2795 479.376 52.1836 478.895 51.9796C478.413 51.7757 477.983 51.4689 477.636 51.0813C476.893 50.1794 476.517 49.0371 476.58 47.8765V0.89064H485.587V35.3566L507.648 0.89064H518.376L502.95 23.3837L524 51.9017H511.818L497.63 31.3315Z" fill="url(#paint0_linear_583_855)"/>
<defs>
<linearGradient id="paint0_linear_583_855" x1="25.7271" y1="0.81372" x2="25.7271" y2="75.2675" gradientUnits="userSpaceOnUse">
<stop stop-color="#FBC61D"/>
<stop offset="0.242708" stop-color="#FABA1E"/>
<stop offset="0.513542" stop-color="#F69B20"/>
<stop offset="0.753125" stop-color="#F16A23"/>
<stop offset="1" stop-color="#EE5225"/>
</linearGradient>
</defs>
</svg>
