<svg width="216" height="101" viewBox="0 0 216 101" fill="none" xmlns="http://www.w3.org/2000/svg">
<path d="M25.2258 2.71932C25.6493 2.02927 26.2697 1.47819 27.0091 1.13526C27.695 0.820255 28.442 0.656524 29.1984 0.655439C29.6039 0.639347 30.0078 0.715082 30.3792 0.876852C30.7505 1.03862 31.0795 1.28214 31.341 1.58879C31.9104 2.29088 32.1992 3.17491 32.1528 4.07333V27.9657L49.1608 2.71932C49.5759 2.03215 50.1869 1.48115 50.9175 1.13526C51.6106 0.814003 52.3677 0.650056 53.1333 0.655439C53.5377 0.64036 53.9403 0.716587 54.3105 0.878321C54.6806 1.04006 55.0085 1.28304 55.2693 1.58879C55.8433 2.28874 56.1348 3.17374 56.0877 4.07333V40.1847H49.1608V13.6829L33.6832 37.825C33.2343 38.6017 32.5814 39.2444 31.7935 39.6851C31.1488 40.0114 30.4351 40.1825 29.7107 40.1847C29.1183 40.1897 28.5306 40.0803 27.9806 39.8626C27.4468 39.6464 26.9608 39.3294 26.55 38.9292C26.1428 38.5236 25.8156 38.0466 25.5852 37.5226C25.338 36.9495 25.2155 36.3314 25.2258 35.7085V13.6829L8.25113 40.1847H0L25.2258 2.71932ZM61.99 40.1847V0.957791H68.9169V40.1847H61.99ZM104.576 40.1847H94.8814L84.3412 29.1751C83.8022 28.629 83.3329 28.0198 82.9438 27.361C82.6333 26.8432 82.4657 26.2539 82.4581 25.6521C82.4581 23.5093 83.8333 22.335 86.5837 22.129C90.2834 21.8661 93.0248 21.1387 94.8082 19.9468C96.5915 18.7549 97.4787 16.9518 97.4698 14.5373C97.4698 12.2894 96.8044 10.5936 95.4071 9.4828C94.0097 8.37199 92.08 7.79357 89.5248 7.79357H81.8991V40.1847H74.9722V0.957791H89.6911C91.6777 0.946506 93.6537 1.24372 95.5468 1.83856C97.2884 2.37451 98.9054 3.24572 100.304 4.40197C101.667 5.55299 102.756 6.98719 103.492 8.60204C104.3 10.4239 104.697 12.3975 104.656 14.3862C104.655 15.7455 104.458 17.0978 104.071 18.4022C103.646 19.8082 102.955 21.1219 102.035 22.2736C100.99 23.5622 99.7105 24.6458 98.2617 25.468C96.4556 26.4897 94.4677 27.1591 92.406 27.4399L104.576 40.1847ZM132.331 2.71932C132.741 2.03503 133.344 1.48432 134.068 1.13526C134.759 0.81475 135.513 0.650815 136.277 0.655439C136.678 0.639432 137.078 0.715344 137.445 0.877249C137.813 1.03915 138.137 1.28267 138.393 1.58879C138.95 2.29649 139.231 3.17818 139.185 4.07333V40.1847H132.311V13.6829L115.303 40.1847H107.052L132.331 2.71932ZM164.271 40.1847C161.488 40.2204 158.726 39.6994 156.153 38.6532C153.776 37.6878 151.627 36.2491 149.838 34.4268C148.062 32.5926 146.669 30.4306 145.739 28.0643C144.742 25.5522 144.241 22.875 144.262 20.1769C144.228 17.51 144.721 14.8621 145.712 12.3814C146.629 10.1041 148.016 8.0402 149.785 6.32125C151.593 4.592 153.743 3.24949 156.099 2.37753C158.698 1.4125 161.455 0.931134 164.231 0.957791H170.033V7.79357H164.231C162.425 7.77516 160.634 8.11025 158.961 8.7795C157.405 9.39698 155.988 10.3104 154.789 11.4678C153.598 12.6365 152.661 14.0319 152.034 15.5693C151.365 17.2064 151.028 18.9572 151.042 20.7224C151.016 22.4603 151.335 24.1865 151.981 25.8032C152.597 27.3187 153.527 28.69 154.712 29.8288C155.897 30.9676 157.31 31.8488 158.861 32.4155C160.561 33.0504 162.367 33.3669 164.184 33.3489H169.987V40.1847H164.271ZM174.305 40.1847V0.957791H181.179V33.3489H191.905V40.1847H174.305ZM216 40.1847H196.257V0.957791H215.661V7.79357H203.217V16.9036H213.957V23.6933H203.217V33.3489H215.993L216 40.1847Z" fill="url(#paint0_linear_745_16125)"/>
<path d="M52.722 85.6809C52.5248 84.804 52.2092 83.9573 51.7838 83.1635C51.3138 82.3348 50.7192 81.5813 50.0204 80.9287C49.2341 80.2101 48.3353 79.622 47.3588 79.1869C48.2537 78.8056 49.0668 78.259 49.7543 77.5765C50.3844 76.9798 50.9046 76.2791 51.2914 75.5061C51.6602 74.7542 51.9307 73.9591 52.0965 73.1399C52.2616 72.3548 52.3485 71.5557 52.356 70.7539C52.356 67.336 51.1827 64.7835 48.836 63.0965C46.5004 61.4336 43.1068 60.5791 38.6552 60.5791H25.2471V99.8126H37.158C39.5351 99.8576 41.9057 99.5519 44.1914 98.9055C45.9869 98.4051 47.6663 97.5633 49.1354 96.4275C50.386 95.4389 51.3805 94.1704 52.0366 92.727C52.6633 91.2978 52.9828 89.7557 52.9749 88.1983C52.9789 87.3528 52.8941 86.5091 52.722 85.6809ZM32.214 67.3689H38.2759C41.0107 67.3689 42.9338 67.7238 44.1049 68.4271C44.6674 68.805 45.1183 69.3235 45.4117 69.9297C45.7051 70.5359 45.8305 71.2082 45.7751 71.8779C45.7751 73.4816 45.3625 74.6713 44.5175 75.3878C43.5222 76.187 42.2572 76.5839 40.9775 76.4986H32.214V67.3689ZM44.1049 91.8199C42.2837 92.6623 40.2854 93.0634 38.2759 92.9899H32.214V83.3147H41.0107C42.3901 83.2637 43.7432 83.6968 44.8302 84.5372C45.8616 85.3325 46.3673 86.5485 46.3673 88.1983C46.3929 88.9591 46.1881 89.7101 45.7791 90.3553C45.3702 91.0004 44.7757 91.5104 44.0717 91.8199H44.1049ZM58.1318 99.8717V60.6383H65.0055V93.0294H75.7986V99.8717H58.1318ZM117.241 72.1605C116.33 69.8783 114.953 67.8063 113.195 66.074C111.394 64.3254 109.247 62.9647 106.887 62.0777C104.261 61.0908 101.471 60.6024 98.6622 60.6383H97.4245C94.6486 60.5947 91.8887 61.0628 89.2865 62.0186C86.9258 62.8909 84.7719 64.2333 82.9584 65.9623C81.199 67.6962 79.8176 69.7675 78.8994 72.0488C77.8987 74.5112 77.4011 77.1449 77.4354 79.7982C77.4157 82.4962 77.9171 85.1732 78.9127 87.6856C79.8574 90.0536 81.2636 92.2153 83.0516 94.0481C84.8446 95.8779 86.9983 97.3253 89.3796 98.3008C91.9283 99.3487 94.6639 99.8807 97.4245 99.8651H98.6023C101.359 99.896 104.093 99.375 106.64 98.3337C109.025 97.3535 112.989 94.081 112.989 94.081C114.781 92.2531 116.186 90.09 117.121 87.7185C118.131 85.21 118.635 82.5306 118.605 79.831C118.64 77.2094 118.166 74.6054 117.207 72.1605H117.241ZM110.853 85.4377C110.254 86.9368 109.348 88.2974 108.191 89.434C107.001 90.5721 105.594 91.4658 104.052 92.0631C102.335 92.7055 100.511 93.0243 98.6755 93.0031H97.4245C95.6066 93.0311 93.7999 92.7165 92.1012 92.0763C90.5513 91.4826 89.1373 90.5887 87.9424 89.4471C86.7887 88.294 85.8733 86.9299 85.2474 85.4311C83.9387 82.117 83.9529 78.4356 85.2874 75.1314C85.9072 73.6045 86.8381 72.2197 88.0222 71.0628C89.2134 69.9068 90.6246 68.9954 92.1744 68.3811C93.8495 67.7499 95.6321 67.4442 97.4245 67.4806H98.6023C100.402 67.4627 102.188 67.784 103.866 68.4271C105.429 69.0312 106.85 69.9471 108.04 71.1175C109.229 72.2879 110.162 73.6879 110.779 75.23C111.428 76.8808 111.751 78.6388 111.731 80.4095C111.753 82.1275 111.443 83.8339 110.819 85.4377H110.853ZM143.059 99.898C140.273 99.9303 137.51 99.4072 134.934 98.3599C132.559 97.3956 130.411 95.9567 128.626 94.1336C126.85 92.2993 125.457 90.1373 124.527 87.7711C123.53 85.2591 123.028 82.5818 123.05 79.8836C123.012 77.2164 123.505 74.5678 124.5 72.0882C125.419 69.8121 126.806 67.7487 128.573 66.028C130.381 64.2988 132.53 62.9562 134.887 62.0843C137.499 61.1189 140.27 60.6419 143.059 60.6777H148.861V67.4806H143.059C141.254 67.4599 139.462 67.7928 137.789 68.46C136.232 69.079 134.812 69.9921 133.61 71.1483C132.423 72.3183 131.488 73.7135 130.862 75.2497C130.193 76.8869 129.856 78.6376 129.87 80.4029C129.852 82.1425 130.18 83.8687 130.835 85.4837C131.451 86.9992 132.382 88.3704 133.567 89.5092C134.752 90.6481 136.165 91.5292 137.715 92.096C139.416 92.7309 141.221 93.0474 143.039 93.0294H148.841V99.8717L143.059 99.898ZM169.635 84.0508L160.373 98.1365C159.974 98.8366 159.358 99.3918 158.616 99.7205C157.913 100.005 157.16 100.15 156.4 100.148C155.997 100.162 155.596 100.089 155.226 99.9317C154.855 99.7748 154.525 99.5389 154.258 99.2407C153.687 98.5471 153.397 97.6685 153.446 96.7759V60.6383H160.373V87.1466L177.341 60.6383H185.592L173.728 77.9381L189.917 99.8717H180.548L169.635 84.0508Z" fill="url(#paint1_linear_745_16125)"/>
<defs>
<linearGradient id="paint0_linear_745_16125" x1="19.7871" y1="0.616502" x2="19.7871" y2="57.8802" gradientUnits="userSpaceOnUse">
<stop stop-color="#FBC61D"/>
<stop offset="0.242708" stop-color="#FABA1E"/>
<stop offset="0.513542" stop-color="#F69B20"/>
<stop offset="0.753125" stop-color="#F16A23"/>
<stop offset="1" stop-color="#EE5225"/>
</linearGradient>
<linearGradient id="paint1_linear_745_16125" x1="-193.313" y1="60.5791" x2="-193.313" y2="117.843" gradientUnits="userSpaceOnUse">
<stop stop-color="#FBC61D"/>
<stop offset="0.242708" stop-color="#FABA1E"/>
<stop offset="0.513542" stop-color="#F69B20"/>
<stop offset="0.753125" stop-color="#F16A23"/>
<stop offset="1" stop-color="#EE5225"/>
</linearGradient>
</defs>
</svg>
