<svg width="60" height="60" viewBox="0 0 60 60" fill="none" xmlns="http://www.w3.org/2000/svg">
<path d="M60 30C60 46.5703 46.5703 60 30 60C13.4297 60 0 46.5703 0 30C0 13.4297 13.4297 0 30 0C46.5703 0 60 13.4297 60 30ZM22.0664 17.2383C21.1758 17.7305 20.625 18.6797 20.625 19.6875V40.3125C20.625 41.332 21.1758 42.2695 22.0664 42.7617C22.957 43.2539 24.0352 43.2422 24.9141 42.7031L41.7891 32.3906C42.6211 31.875 43.1367 30.9727 43.1367 29.9883C43.1367 29.0039 42.6211 28.1016 41.7891 27.5859L24.9141 17.2734C24.0469 16.7461 22.957 16.7227 22.0664 17.2148V17.2383Z" fill="url(#paint0_linear_923_7726)"/>
<defs>
<linearGradient id="paint0_linear_923_7726" x1="5.33698e-07" y1="25.7699" x2="64.8075" y2="26.1795" gradientUnits="userSpaceOnUse">
<stop stop-color="#EF5C24"/>
<stop offset="1" stop-color="#FBC41D"/>
</linearGradient>
</defs>
</svg>
