<svg width="58" height="46" viewBox="0 0 58 46" fill="none" xmlns="http://www.w3.org/2000/svg">
<path d="M35.6185 26.8441L23.2992 45.0477H0.0644531L27.8956 2.40721L28.2711 1.82665C28.6526 1.36853 29.1622 1.03179 29.736 0.85846C30.3099 0.685133 30.9226 0.682903 31.4978 0.852049C32.0729 1.0212 32.5849 1.35422 32.9699 1.80955C33.3549 2.26487 33.5958 2.82232 33.6625 3.41228C33.6625 3.52465 33.6625 3.64014 33.6625 3.76187V3.84615L35.6185 26.8441Z" fill="url(#paint0_linear_522_1150)"/>
<path d="M54.2596 0.724625C54.0775 0.72402 53.8958 0.740744 53.717 0.774567C53.438 0.85015 53.1658 0.948282 52.903 1.06797C52.7696 1.12561 52.6409 1.19345 52.5181 1.27086C51.9652 1.60962 51.5031 2.0754 51.1711 2.62864L35.6182 26.8439L36.7444 45.0475H57.3165V3.74607C57.3165 3.34903 57.2374 2.95588 57.0838 2.58909C56.9301 2.22231 56.7049 1.88909 56.421 1.60848C56.1371 1.32787 55.8 1.10538 55.4292 0.953723C55.0583 0.802065 54.6609 0.724215 54.2596 0.724625Z" fill="url(#paint1_linear_522_1150)"/>
<defs>
<linearGradient id="paint0_linear_522_1150" x1="17.8415" y1="0.724815" x2="17.8415" y2="45.0384" gradientUnits="userSpaceOnUse">
<stop stop-color="#FBC61D"/>
<stop offset="0.16" stop-color="#FABA1E"/>
<stop offset="0.45" stop-color="#F69B20"/>
<stop offset="0.83" stop-color="#F16A23"/>
<stop offset="1" stop-color="#EE5225"/>
</linearGradient>
<linearGradient id="paint1_linear_522_1150" x1="46.4673" y1="0.724625" x2="46.4673" y2="45.0382" gradientUnits="userSpaceOnUse">
<stop stop-color="#FBC61D"/>
<stop offset="0.16" stop-color="#FABA1E"/>
<stop offset="0.45" stop-color="#F69B20"/>
<stop offset="0.83" stop-color="#F16A23"/>
<stop offset="1" stop-color="#EE5225"/>
</linearGradient>
</defs>
</svg>
