<svg width="54" height="55" viewBox="0 0 54 55" fill="none" xmlns="http://www.w3.org/2000/svg">
<path d="M1.09961 39.6526L27.0069 27.4746L15.2256 40.0392L1.09961 39.6526Z" fill="url(#paint0_linear_641_962)"/>
<path d="M27.0069 27.4746L15.6019 53.3217L15.2256 40.0392L27.0069 27.4746Z" fill="url(#paint1_linear_641_962)"/>
<path d="M16.0075 39.2107V52.2585C16.0075 52.5498 15.9471 52.8382 15.8299 53.1071C15.7126 53.376 15.5407 53.6202 15.3241 53.8255C15.1076 54.0308 14.8506 54.1933 14.5679 54.3035C14.2853 54.4137 13.9826 54.4695 13.6773 54.4677H2.33021C2.02488 54.4695 1.7222 54.4137 1.43957 54.3035C1.15694 54.1933 0.899943 54.0308 0.683371 53.8255C0.4668 53.6202 0.294929 53.376 0.177649 53.1071C0.0603685 52.8382 -5.96305e-06 52.5498 4.41741e-10 52.2585V41.4198C0.00382304 40.8327 0.251013 40.2708 0.687598 39.8569C1.12418 39.443 1.7147 39.2107 2.33021 39.2107H16.0075Z" fill="url(#paint2_linear_641_962)"/>
<path d="M52.8996 39.6526L27.0068 27.4746L38.7737 40.0392L52.8996 39.6526Z" fill="url(#paint3_linear_641_962)"/>
<path d="M27.0068 27.4746L38.4118 53.3217L38.7737 40.0392L27.0068 27.4746Z" fill="url(#paint4_linear_641_962)"/>
<path d="M37.9922 39.2107V52.2585C37.9922 52.5498 38.0526 52.8382 38.1698 53.1071C38.2871 53.376 38.459 53.6202 38.6756 53.8255C38.8921 54.0308 39.1491 54.1933 39.4318 54.3035C39.7144 54.4137 40.0171 54.4695 40.3224 54.4677H51.6695C51.9748 54.4695 52.2775 54.4137 52.5601 54.3035C52.8428 54.1933 53.0997 54.0308 53.3163 53.8255C53.5329 53.6202 53.7048 53.376 53.822 53.1071C53.9393 52.8382 53.9997 52.5498 53.9997 52.2585V41.4198C53.9959 40.8327 53.7487 40.2708 53.3121 39.8569C52.8755 39.443 52.285 39.2107 51.6695 39.2107H37.9922Z" fill="url(#paint5_linear_641_962)"/>
<path d="M1.09961 15.2968L27.0069 27.4747L15.2256 14.9102L1.09961 15.2968Z" fill="url(#paint6_linear_641_962)"/>
<path d="M27.0069 27.4747L15.6019 1.61377L15.2256 14.9101L27.0069 27.4747Z" fill="url(#paint7_linear_641_962)"/>
<path d="M16.0075 15.7385V2.69073C16.0075 2.10117 15.762 1.53575 15.325 1.11886C14.888 0.701978 14.2953 0.467773 13.6773 0.467773L2.33021 0.467773C1.7122 0.467773 1.1195 0.701978 0.682502 1.11886C0.245503 1.53575 0 2.10117 0 2.69073L0 13.5156C0 14.1052 0.245503 14.6706 0.682502 15.0875C1.1195 15.5043 1.7122 15.7385 2.33021 15.7385H16.0075Z" fill="url(#paint8_linear_641_962)"/>
<path d="M52.8996 15.2968L27.0068 27.4747L38.7737 14.9102L52.8996 15.2968Z" fill="url(#paint9_linear_641_962)"/>
<path d="M27.0068 27.4747L38.4118 1.61377L38.7737 14.9101L27.0068 27.4747Z" fill="url(#paint10_linear_641_962)"/>
<path d="M37.9922 15.7385V2.69073C37.9922 2.10117 38.2377 1.53575 38.6747 1.11886C39.1117 0.701978 39.7044 0.467773 40.3224 0.467773L51.6695 0.467773C52.2875 0.467773 52.8802 0.701978 53.3172 1.11886C53.7542 1.53575 53.9997 2.10117 53.9997 2.69073V13.5156C53.9997 14.1052 53.7542 14.6706 53.3172 15.0875C52.8802 15.5043 52.2875 15.7385 51.6695 15.7385H37.9922Z" fill="url(#paint11_linear_641_962)"/>
<defs>
<linearGradient id="paint0_linear_641_962" x1="1.09961" y1="33.7569" x2="27.0069" y2="33.7569" gradientUnits="userSpaceOnUse">
<stop stop-color="#43C3EB"/>
<stop offset="0.13" stop-color="#41B9E2"/>
<stop offset="0.34" stop-color="#3B9EC8"/>
<stop offset="0.62" stop-color="#31729F"/>
<stop offset="0.94" stop-color="#233566"/>
<stop offset="1" stop-color="#212A5C"/>
</linearGradient>
<linearGradient id="paint1_linear_641_962" x1="15.2256" y1="40.3982" x2="27.0069" y2="40.3982" gradientUnits="userSpaceOnUse">
<stop offset="0.01" stop-color="#43C3EB"/>
<stop offset="0.28" stop-color="#37A7D8"/>
<stop offset="0.88" stop-color="#1761A9"/>
<stop offset="1" stop-color="#10529F"/>
</linearGradient>
<linearGradient id="paint2_linear_641_962" x1="4.41741e-10" y1="46.8461" x2="16.0075" y2="46.8461" gradientUnits="userSpaceOnUse">
<stop stop-color="#FAC51C"/>
<stop offset="0.16" stop-color="#F9B91D"/>
<stop offset="0.45" stop-color="#F59A1F"/>
<stop offset="0.83" stop-color="#F06923"/>
<stop offset="1" stop-color="#ED5125"/>
</linearGradient>
<linearGradient id="paint3_linear_641_962" x1="52.8996" y1="33.7569" x2="27.0068" y2="33.7569" gradientUnits="userSpaceOnUse">
<stop stop-color="#43C3EB"/>
<stop offset="0.13" stop-color="#41B9E2"/>
<stop offset="0.34" stop-color="#3B9EC8"/>
<stop offset="0.62" stop-color="#31729F"/>
<stop offset="0.94" stop-color="#233566"/>
<stop offset="1" stop-color="#212A5C"/>
</linearGradient>
<linearGradient id="paint4_linear_641_962" x1="38.7737" y1="40.3982" x2="27.0068" y2="40.3982" gradientUnits="userSpaceOnUse">
<stop offset="0.01" stop-color="#43C3EB"/>
<stop offset="0.28" stop-color="#37A7D8"/>
<stop offset="0.88" stop-color="#1761A9"/>
<stop offset="1" stop-color="#10529F"/>
</linearGradient>
<linearGradient id="paint5_linear_641_962" x1="53.9997" y1="46.8461" x2="38.0067" y2="46.8461" gradientUnits="userSpaceOnUse">
<stop stop-color="#FAC51C"/>
<stop offset="0.16" stop-color="#F9B91D"/>
<stop offset="0.45" stop-color="#F59A1F"/>
<stop offset="0.83" stop-color="#F06923"/>
<stop offset="1" stop-color="#ED5125"/>
</linearGradient>
<linearGradient id="paint6_linear_641_962" x1="1.09961" y1="21.1924" x2="27.0069" y2="21.1924" gradientUnits="userSpaceOnUse">
<stop stop-color="#43C3EB"/>
<stop offset="0.13" stop-color="#41B9E2"/>
<stop offset="0.34" stop-color="#3B9EC8"/>
<stop offset="0.62" stop-color="#31729F"/>
<stop offset="0.94" stop-color="#233566"/>
<stop offset="1" stop-color="#212A5C"/>
</linearGradient>
<linearGradient id="paint7_linear_641_962" x1="15.2256" y1="14.5511" x2="27.0069" y2="14.5511" gradientUnits="userSpaceOnUse">
<stop offset="0.01" stop-color="#43C3EB"/>
<stop offset="0.28" stop-color="#37A7D8"/>
<stop offset="0.88" stop-color="#1761A9"/>
<stop offset="1" stop-color="#10529F"/>
</linearGradient>
<linearGradient id="paint8_linear_641_962" x1="0" y1="8.10316" x2="16.0075" y2="8.10316" gradientUnits="userSpaceOnUse">
<stop stop-color="#FAC51C"/>
<stop offset="0.16" stop-color="#F9B91D"/>
<stop offset="0.45" stop-color="#F59A1F"/>
<stop offset="0.83" stop-color="#F06923"/>
<stop offset="1" stop-color="#ED5125"/>
</linearGradient>
<linearGradient id="paint9_linear_641_962" x1="52.8996" y1="21.1924" x2="27.0068" y2="21.1924" gradientUnits="userSpaceOnUse">
<stop stop-color="#43C3EB"/>
<stop offset="0.13" stop-color="#41B9E2"/>
<stop offset="0.34" stop-color="#3B9EC8"/>
<stop offset="0.62" stop-color="#31729F"/>
<stop offset="0.94" stop-color="#233566"/>
<stop offset="1" stop-color="#212A5C"/>
</linearGradient>
<linearGradient id="paint10_linear_641_962" x1="38.7737" y1="14.5511" x2="27.0068" y2="14.5511" gradientUnits="userSpaceOnUse">
<stop offset="0.01" stop-color="#43C3EB"/>
<stop offset="0.28" stop-color="#37A7D8"/>
<stop offset="0.88" stop-color="#1761A9"/>
<stop offset="1" stop-color="#10529F"/>
</linearGradient>
<linearGradient id="paint11_linear_641_962" x1="53.9997" y1="8.10316" x2="38.0067" y2="8.10316" gradientUnits="userSpaceOnUse">
<stop stop-color="#FAC51C"/>
<stop offset="0.16" stop-color="#F9B91D"/>
<stop offset="0.45" stop-color="#F59A1F"/>
<stop offset="0.83" stop-color="#F06923"/>
<stop offset="1" stop-color="#ED5125"/>
</linearGradient>
</defs>
</svg>
