<svg width="56" height="52" viewBox="0 0 56 52" fill="none" xmlns="http://www.w3.org/2000/svg">
<path d="M0 40.498C0.145833 40.3668 0.30625 40.2501 0.422917 40.1043C4.09792 35.6855 8.82292 33.2647 14.525 32.623C17.8354 32.2438 21.1458 32.3459 24.4562 32.448C27.5187 32.5501 30.5812 32.6522 33.6437 32.7397C35.5104 32.798 36.6333 34.548 35.8312 36.2397C35.3792 37.1876 34.5771 37.5522 33.5562 37.5522C29.6625 37.5522 25.7542 37.5522 21.8604 37.5522C21.6854 37.5522 21.4521 37.4938 21.3208 37.5813C21.0875 37.7563 20.7813 37.9897 20.7229 38.2376C20.6354 38.6022 20.9125 38.8793 21.3063 38.9522C21.4083 38.9668 21.525 38.9668 21.6271 38.9668C25.6375 38.9668 29.6479 38.9813 33.6583 38.9668C35.5687 38.9668 36.9687 37.873 37.3333 36.0938C37.4354 35.5688 37.4354 35.0001 37.3625 34.4751C37.3042 34.0959 37.4354 33.9793 37.7125 33.8188C41.5625 31.6313 45.3979 29.4438 49.2479 27.2563C49.9042 26.8772 50.575 26.4543 51.2896 26.2355C53.2875 25.6522 55.2854 26.8626 55.8542 28.9188C55.8979 29.0647 55.9562 29.2251 56 29.3709C56 29.7355 56 30.1001 56 30.4647C55.6937 31.923 54.7896 32.8418 53.5208 33.5709C45.7187 38.0334 37.9458 42.5397 30.1583 47.0168C29.925 47.148 29.575 47.1772 29.3125 47.1188C27.65 46.8272 26.0021 46.3605 24.325 46.2001C18.3313 45.6459 13.0083 47.4397 8.21042 50.9688C7.80208 51.2605 7.42292 51.5813 7 51.9022C6.92708 51.8001 6.86875 51.7272 6.81042 51.6543C4.84167 48.5043 2.85833 45.3251 0.875 42.1459C0.583333 41.6647 0.291667 41.198 0 40.7168C0 40.6438 0 40.5709 0 40.498Z" fill="url(#paint0_linear_857_10787)"/>
<path d="M41.9708 2.91768e-05C48.6354 -0.0145542 54.1187 5.43961 54.1333 12.0896C54.1479 18.8271 48.7083 24.3396 41.9999 24.3396C35.2333 24.3396 29.7499 18.9 29.7354 12.1479C29.7354 5.46878 35.2187 0.0146125 41.9708 2.91768e-05ZM41.2124 6.5917C40.8479 6.7667 40.4979 6.89795 40.2062 7.10211C39.1416 7.84586 38.7333 8.91045 38.8499 10.1792C38.9666 11.4042 39.6958 12.1334 40.8187 12.5417C40.9791 12.6 41.1979 12.7896 41.2124 12.9354C41.2416 14 41.227 15.0646 41.227 16.1875C40.4541 15.925 40.2499 15.3271 40.1479 14.6854C40.0749 14.2334 39.8854 13.9563 39.4187 13.9854C38.9666 14.0146 38.8062 14.3209 38.8208 14.7438C38.8791 16.0417 39.5645 16.9313 40.7166 17.4709C41.0666 17.6313 41.2562 17.7917 41.2416 18.2146C41.227 18.6667 41.5916 19.0313 41.9562 19.0021C42.3791 18.9729 42.6708 18.725 42.627 18.3021C42.5833 17.8063 42.8166 17.6313 43.2249 17.4417C45.1499 16.5813 45.4562 14.4229 44.6979 12.9646C44.3333 12.2792 43.6624 11.9729 42.977 11.7104C42.8458 11.6667 42.6708 11.5354 42.6562 11.4334C42.627 10.3104 42.6416 9.20211 42.6416 7.9917C43.327 8.40003 43.7208 8.8667 43.7354 9.59586C43.7499 10.0917 44.0562 10.4271 44.4499 10.3688C44.9312 10.3104 45.1208 9.96045 45.0333 9.55211C44.9166 8.99795 44.7708 8.4292 44.5083 7.93336C44.1291 7.23336 43.4291 6.88336 42.6854 6.66461C42.5687 5.52711 42.4229 5.23545 41.9416 5.25003C41.4312 5.26461 41.2708 5.57086 41.2124 6.5917Z" fill="url(#paint1_linear_857_10787)"/>
<path d="M14.0296 2.91768e-05C20.7817 0.0146125 26.265 5.46878 26.2505 12.1625C26.2359 18.9146 20.7525 24.3542 13.9859 24.3542C7.29212 24.3542 1.85254 18.8417 1.85254 12.1042C1.86712 5.43961 7.35046 -0.0145542 14.0296 2.91768e-05ZM13.315 6.63545C11.813 7.16045 11.04 8.0792 10.9525 9.45003C10.8359 11.1854 11.6817 12.2354 13.315 12.6292C13.315 13.8542 13.315 15.0209 13.315 16.2021C12.6442 15.8084 12.2796 15.2834 12.265 14.6854C12.2505 14.2334 12.0609 13.9563 11.5942 13.9563C11.0984 13.9563 10.938 14.2625 10.9525 14.7146C10.9817 15.9979 11.6525 16.9021 12.7755 17.4271C13.1984 17.6167 13.4171 17.7917 13.3734 18.2729C13.3296 18.6813 13.6067 18.9584 14.015 18.9729C14.4525 18.9729 14.7442 18.7396 14.7734 18.2875C14.788 18.0979 14.7734 17.8938 14.7734 17.7334C16.188 17.1792 17.1067 16.275 17.165 14.7438C17.238 13.1834 16.5088 12.1479 15.0213 11.6521C14.9192 11.6229 14.788 11.4917 14.788 11.4042C14.7734 10.2959 14.7734 9.17295 14.7734 7.97711C15.488 8.38545 15.7942 8.92503 15.8525 9.61045C15.8963 10.0479 16.0859 10.3396 16.5525 10.3542C16.9317 10.3688 17.1942 9.97503 17.165 9.4792C17.1067 8.54586 16.7421 7.74378 15.9546 7.2042C15.6046 6.95628 15.1963 6.79586 14.8025 6.57711C14.715 5.52711 14.5546 5.23545 14.0442 5.23545C13.5484 5.25003 13.388 5.5417 13.315 6.63545Z" fill="url(#paint2_linear_857_10787)"/>
<path d="M41.1981 11.1709C40.5419 11.0105 40.221 10.6605 40.1481 9.97505C40.0606 9.12922 40.4398 8.42922 41.1981 8.05005C41.1981 9.10005 41.1981 10.1355 41.1981 11.1709Z" fill="url(#paint3_linear_857_10787)"/>
<path d="M42.6855 16.1876C42.6855 15.123 42.6855 14.1168 42.6855 13.0959C43.3272 13.2272 43.6626 13.6064 43.7501 14.2626C43.8668 15.123 43.4876 15.8084 42.6855 16.1876Z" fill="url(#paint4_linear_857_10787)"/>
<path d="M13.2999 11.1709C12.6291 11.025 12.352 10.7334 12.2645 10.1063C12.1332 9.21672 12.4978 8.45838 13.2999 8.05005C13.2999 9.10005 13.2999 10.1355 13.2999 11.1709Z" fill="url(#paint5_linear_857_10787)"/>
<path d="M14.8164 13.0522C15.4872 13.3293 15.8227 13.796 15.8518 14.4668C15.8956 15.2543 15.5602 15.8231 14.8164 16.2314C14.8164 15.1522 14.8164 14.1314 14.8164 13.0522Z" fill="url(#paint6_linear_857_10787)"/>
<defs>
<linearGradient id="paint0_linear_857_10787" x1="43.25" y1="24.5" x2="28" y2="66" gradientUnits="userSpaceOnUse">
<stop stop-color="#FAC51C"/>
<stop offset="0.16" stop-color="#F9B91D"/>
<stop offset="0.45" stop-color="#F59A1F"/>
<stop offset="0.83" stop-color="#F06923"/>
<stop offset="1" stop-color="#ED5125"/>
</linearGradient>
<linearGradient id="paint1_linear_857_10787" x1="29.7354" y1="12.1697" x2="54.1331" y2="12.1697" gradientUnits="userSpaceOnUse">
<stop stop-color="#FAC51C"/>
<stop offset="0.11" stop-color="#F5C522"/>
<stop offset="0.25" stop-color="#E6C532"/>
<stop offset="0.41" stop-color="#CFC54D"/>
<stop offset="0.58" stop-color="#ADC473"/>
<stop offset="0.77" stop-color="#83C4A3"/>
<stop offset="0.96" stop-color="#4FC3DD"/>
<stop offset="1" stop-color="#43C3EB"/>
</linearGradient>
<linearGradient id="paint2_linear_857_10787" x1="26.2504" y1="10.5729" x2="-4.73916" y2="10.5729" gradientUnits="userSpaceOnUse">
<stop stop-color="#FAC51C"/>
<stop offset="0.16" stop-color="#F9B91D"/>
<stop offset="0.45" stop-color="#F59A1F"/>
<stop offset="0.83" stop-color="#F06923"/>
<stop offset="1" stop-color="#ED5125"/>
</linearGradient>
<linearGradient id="paint3_linear_857_10787" x1="41.0523" y1="9.62502" x2="39.594" y2="9.62502" gradientUnits="userSpaceOnUse">
<stop stop-color="#FAC51C"/>
<stop offset="0.11" stop-color="#F5C522"/>
<stop offset="0.25" stop-color="#E6C532"/>
<stop offset="0.41" stop-color="#CFC54D"/>
<stop offset="0.58" stop-color="#ADC473"/>
<stop offset="0.77" stop-color="#83C4A3"/>
<stop offset="0.96" stop-color="#4FC3DD"/>
<stop offset="1" stop-color="#43C3EB"/>
</linearGradient>
<linearGradient id="paint4_linear_857_10787" x1="43.6219" y1="14.6562" x2="42.1321" y2="14.6562" gradientUnits="userSpaceOnUse">
<stop stop-color="#FAC51C"/>
<stop offset="0.11" stop-color="#F5C522"/>
<stop offset="0.25" stop-color="#E6C532"/>
<stop offset="0.41" stop-color="#CFC54D"/>
<stop offset="0.58" stop-color="#ADC473"/>
<stop offset="0.77" stop-color="#83C4A3"/>
<stop offset="0.96" stop-color="#4FC3DD"/>
<stop offset="1" stop-color="#43C3EB"/>
</linearGradient>
<linearGradient id="paint5_linear_857_10787" x1="12.2375" y1="9.61142" x2="13.3001" y2="9.61142" gradientUnits="userSpaceOnUse">
<stop stop-color="#FAC51C"/>
<stop offset="0.16" stop-color="#F9B91D"/>
<stop offset="0.45" stop-color="#F59A1F"/>
<stop offset="0.83" stop-color="#F06923"/>
<stop offset="1" stop-color="#ED5125"/>
</linearGradient>
<linearGradient id="paint6_linear_857_10787" x1="14.8156" y1="14.6428" x2="15.8558" y2="14.6428" gradientUnits="userSpaceOnUse">
<stop stop-color="#FAC51C"/>
<stop offset="0.16" stop-color="#F9B91D"/>
<stop offset="0.45" stop-color="#F59A1F"/>
<stop offset="0.83" stop-color="#F06923"/>
<stop offset="1" stop-color="#ED5125"/>
</linearGradient>
</defs>
</svg>
