<svg width="72" height="54" viewBox="0 0 72 54" fill="none" xmlns="http://www.w3.org/2000/svg">
<g clip-path="url(#clip0_539_1429)">
<path d="M2.28905 15.8684H15.6152C16.3207 15.8684 16.9973 16.1514 17.4962 16.6553C17.9951 17.1591 18.2754 17.8424 18.2754 18.5549V30.3419C18.2685 30.4189 18.2685 30.4963 18.2754 30.5733C18.3273 32.1335 18.9288 33.6238 19.9718 34.7761C21.0148 35.9283 22.4307 36.6669 23.9647 36.8588H23.6084C22.8961 36.8588 22.213 37.1446 21.7094 37.6532C21.2057 38.1619 20.9228 38.8517 20.9228 39.571V41.0492C20.8698 39.3477 20.1622 37.734 18.9502 36.5508C17.7382 35.3676 16.1172 34.7081 14.4315 34.7122H2.28905C1.58237 34.7088 0.905777 34.423 0.407266 33.9171C-0.0912446 33.4112 -0.371102 32.7266 -0.371094 32.0129L-0.371094 18.5549C-0.371094 17.8424 -0.0908296 17.1591 0.408044 16.6553C0.906917 16.1514 1.58353 15.8684 2.28905 15.8684Z" fill="url(#paint0_linear_539_1429)"/>
<path d="M42.3822 0.649432H67.5071C68.0976 0.647736 68.6826 0.763942 69.2285 0.991368C69.7744 1.21879 70.2703 1.55295 70.6879 1.97463C71.1054 2.39631 71.4363 2.89719 71.6615 3.44846C71.8867 3.99973 72.0018 4.59052 72.0001 5.18686V30.5733C71.9967 31.7745 71.5219 32.9253 70.6797 33.7735C69.8374 34.6216 68.6966 35.0979 67.5071 35.0979H42.3567C40.956 35.2646 39.6643 35.9439 38.7261 37.0075C37.7879 38.071 37.2683 39.4449 37.2655 40.8693V50.6254C37.2672 50.9849 37.1982 51.341 37.0624 51.6733C36.9266 52.0055 36.7268 52.3072 36.4745 52.5607C36.2222 52.8143 35.9226 53.0147 35.593 53.1502C35.2634 53.2858 34.9104 53.3539 34.5545 53.3505H23.6212C23.2674 53.3505 22.9172 53.2799 22.5905 53.1428C22.2638 53.0057 21.9672 52.8048 21.7177 52.5515C21.4681 52.2983 21.2706 51.9978 21.1363 51.6673C21.0021 51.3367 20.9339 50.9827 20.9356 50.6254V39.5711C20.9356 38.8518 21.2185 38.1619 21.7222 37.6533C22.2258 37.1446 22.9089 36.8589 23.6212 36.8589H33.0271C34.3876 36.6498 35.6288 35.9552 36.5255 34.901C37.4222 33.8468 37.9151 32.5029 37.9147 31.1132C37.9147 30.959 37.9147 30.7918 37.9147 30.6247V5.18686C37.9146 3.9879 38.3845 2.83767 39.2216 1.98747C40.0587 1.13727 41.195 0.656225 42.3822 0.649432Z" fill="url(#paint1_linear_539_1429)"/>
</g>
<defs>
<linearGradient id="paint0_linear_539_1429" x1="11.8096" y1="41.0492" x2="11.8096" y2="15.8684" gradientUnits="userSpaceOnUse">
<stop stop-color="#FAC51C"/>
<stop offset="0.16" stop-color="#F9B91D"/>
<stop offset="0.45" stop-color="#F59A1F"/>
<stop offset="0.83" stop-color="#F06923"/>
<stop offset="1" stop-color="#ED5125"/>
</linearGradient>
<linearGradient id="paint1_linear_539_1429" x1="70.6891" y1="1.97338" x2="20.677" y2="51.4954" gradientUnits="userSpaceOnUse">
<stop stop-color="#FAC51C"/>
<stop offset="0.11" stop-color="#F5C522"/>
<stop offset="0.25" stop-color="#E6C532"/>
<stop offset="0.41" stop-color="#CFC54D"/>
<stop offset="0.58" stop-color="#ADC473"/>
<stop offset="0.77" stop-color="#83C4A3"/>
<stop offset="0.96" stop-color="#4FC3DD"/>
<stop offset="1" stop-color="#43C3EB"/>
</linearGradient>
<clipPath id="clip0_539_1429">
<rect width="72" height="52.701" fill="white" transform="translate(0 0.649414)"/>
</clipPath>
</defs>
</svg>
