<svg width="72" height="72" viewBox="0 0 72 72" fill="none" xmlns="http://www.w3.org/2000/svg">
<path d="M49.5601 49.5356V64.2985C49.5601 66.338 48.7507 68.2942 47.3095 69.7381C45.8683 71.1819 43.913 71.9954 41.8725 72.0001H7.70539C6.6935 72.0001 5.69152 71.8009 4.75666 71.4138C3.8218 71.0268 2.97237 70.4595 2.25686 69.7443C1.54134 69.0292 0.97377 68.1802 0.586538 67.2458C0.199306 66.3114 0 65.3099 0 64.2985L0 30.2372C0 28.1946 0.811815 26.2357 2.25686 24.7914C3.7019 23.3471 5.66179 22.5356 7.70539 22.5356H22.4399V41.8519C22.4399 42.8624 22.6394 43.863 23.0268 44.7964C23.4143 45.7298 23.9821 46.5777 24.6979 47.2914C25.4136 48.0052 26.2632 48.5708 27.198 48.9559C28.1327 49.341 29.1343 49.538 30.1453 49.5356H49.5601Z" fill="url(#paint0_linear_539_1435)"/>
<path d="M71.9995 7.70158V41.8518C72.0042 42.8621 71.8086 43.8634 71.4239 44.7978C71.0393 45.7322 70.4732 46.5811 69.7584 47.2955C69.0436 48.01 68.1942 48.5758 67.2594 48.9603C66.3246 49.3448 65.3228 49.5403 64.3119 49.5356H49.5596V30.2372C49.5619 29.2266 49.3648 28.2255 48.9795 27.2912C48.5942 26.3569 48.0283 25.5078 47.3142 24.7924C46.6001 24.077 45.7519 23.5094 44.818 23.1222C43.8841 22.7349 42.883 22.5356 41.872 22.5356H22.4395V7.70158C22.4395 5.65899 23.2513 3.70007 24.6963 2.25574C26.1413 0.811414 28.1012 0 30.1448 0L64.3119 0C65.323 -2.70742e-06 66.3241 0.199332 67.2579 0.586591C68.1918 0.973849 69.0401 1.54142 69.7542 2.25682C70.4683 2.97221 71.0342 3.82136 71.4194 4.75566C71.8047 5.68995 72.0019 6.69103 71.9995 7.70158Z" fill="url(#paint1_linear_539_1435)"/>
<defs>
<linearGradient id="paint0_linear_539_1435" x1="0" y1="47.2234" x2="49.5601" y2="47.2234" gradientUnits="userSpaceOnUse">
<stop stop-color="#FAC51C"/>
<stop offset="0.16" stop-color="#F9B91D"/>
<stop offset="0.45" stop-color="#F59A1F"/>
<stop offset="0.83" stop-color="#F06923"/>
<stop offset="1" stop-color="#ED5125"/>
</linearGradient>
<linearGradient id="paint1_linear_539_1435" x1="75.4162" y1="41.6561" x2="30.3629" y2="-3.41949" gradientUnits="userSpaceOnUse">
<stop stop-color="#FAC51C"/>
<stop offset="0.11" stop-color="#F5C522"/>
<stop offset="0.25" stop-color="#E6C532"/>
<stop offset="0.41" stop-color="#CFC54D"/>
<stop offset="0.58" stop-color="#ADC473"/>
<stop offset="0.77" stop-color="#83C4A3"/>
<stop offset="0.96" stop-color="#4FC3DD"/>
<stop offset="1" stop-color="#43C3EB"/>
</linearGradient>
</defs>
</svg>
