<svg width="56" height="55" viewBox="0 0 56 55" fill="none" xmlns="http://www.w3.org/2000/svg">
<path d="M0.0380365 52.5369C0.0380365 51.0214 0.0380365 44.4772 0.216332 43.0508C0.394628 40.9112 1.28611 39.0391 2.80162 37.5236C5.47606 34.8492 8.1505 32.1747 10.8249 29.5003C10.9141 29.4112 11.0924 29.322 11.0924 29.322C11.8056 30.0352 12.5187 30.7484 13.2319 31.5507C13.0536 31.729 12.8753 31.9964 12.6079 32.2639C10.29 34.5817 8.06135 36.8996 5.74351 39.1283C4.13884 40.7329 3.33651 42.6051 3.33651 44.8338C3.33651 46.171 3.33651 52.5369 3.33651 53.785C3.33651 54.4982 3.15821 54.7656 2.44503 54.7656C-0.496851 54.7656 0.0380365 55.1222 0.0380365 52.5369Z" fill="url(#paint0_linear_855_10755)"/>
<path d="M11.8955 25.9943C11.8955 23.1416 14.2134 20.8237 16.9769 20.9129C19.7405 21.002 21.9692 23.2307 21.9692 25.9943C21.9692 28.7579 19.6514 30.9866 16.8878 30.9866C14.1242 30.9866 11.8955 28.8471 11.8955 25.9943Z" fill="url(#paint1_linear_855_10755)"/>
<path d="M14.123 33.9285C12.3401 38.8316 13.0532 48.3943 12.9641 53.4758C12.9641 54.4564 12.6967 54.9021 11.6269 54.813C10.9137 54.7238 10.2897 54.7238 9.57648 54.813C8.59585 54.9021 8.23926 54.6347 8.23926 53.5649C8.32841 50.9796 8.23926 43.8239 8.23926 41.1495C8.23926 39.9014 8.5067 38.9208 9.48733 38.0293C11.0028 36.6921 12.3401 35.2657 13.7664 33.8394C13.9447 33.8394 14.0339 33.8394 14.123 33.9285Z" fill="url(#paint2_linear_855_10755)"/>
<path d="M19.2939 13.2463C19.2939 6.38194 24.9103 0.765625 31.6855 0.765625C38.4608 0.765625 44.0771 6.38194 44.0771 13.1572C44.0771 19.9324 38.4608 25.5487 31.6855 25.6379C24.9103 25.6379 19.2939 20.0216 19.2939 13.2463Z" fill="url(#paint3_linear_855_10755)"/>
<path d="M46.6634 29.2929C46.5742 29.2038 46.6634 29.1146 46.5742 28.8472C47.02 29.0255 47.2874 29.1146 47.644 29.2929C52.3688 31.6108 54.7758 35.5333 54.9541 40.7038C55.0433 43.5566 54.9541 51.1831 55.0433 54.0358C55.0433 54.749 54.7758 55.0164 54.0626 54.9273C53.1712 54.8381 52.3688 54.8381 51.4774 54.9273C50.675 55.0164 50.3184 54.6598 50.4076 53.8575C50.4967 51.5397 50.4076 44.3589 50.4076 42.0411C50.5859 37.4054 49.5161 33.1263 46.6634 29.2929Z" fill="url(#paint4_linear_855_10755)"/>
<path d="M42.9184 27.5098C46.5735 30.8083 48.713 34.9091 48.8913 39.9014C48.9805 43.0215 48.8918 50.8264 48.981 53.8574C48.981 54.4507 48.4109 54.9272 47.8176 54.9272H47.6438C37.0352 54.9272 26.4266 54.9272 15.7288 54.9272C14.7482 54.9272 14.3916 54.6597 14.3916 53.59C14.4807 50.3806 14.3019 42.3975 14.5694 39.1882C14.7477 37.3161 15.4608 35.3548 15.9066 33.4827C15.9957 33.2153 16.5306 32.7695 16.7981 32.7695C20.0965 32.7695 23.2167 30.3625 23.7516 26.6183C23.7516 26.5292 23.8407 26.5292 23.9299 26.2617C24.3756 26.44 24.9105 26.6183 25.3563 26.7966C29.6354 28.6687 33.8253 28.7579 38.1044 26.7966C39.8874 25.9051 41.492 26.1726 42.9184 27.5098Z" fill="url(#paint5_linear_855_10755)"/>
<defs>
<linearGradient id="paint0_linear_855_10755" x1="1.71791e-09" y1="42.9685" x2="13.2318" y2="42.9685" gradientUnits="userSpaceOnUse">
<stop stop-color="#FAC51C"/>
<stop offset="0.11" stop-color="#F5C522"/>
<stop offset="0.25" stop-color="#E6C532"/>
<stop offset="0.41" stop-color="#CFC54D"/>
<stop offset="0.58" stop-color="#ADC473"/>
<stop offset="0.77" stop-color="#83C4A3"/>
<stop offset="0.96" stop-color="#4FC3DD"/>
<stop offset="1" stop-color="#43C3EB"/>
</linearGradient>
<linearGradient id="paint1_linear_855_10755" x1="11.8955" y1="25.9484" x2="23" y2="25.5" gradientUnits="userSpaceOnUse">
<stop stop-color="#FAC51C"/>
<stop offset="0.11" stop-color="#F5C522"/>
<stop offset="0.25" stop-color="#E6C532"/>
<stop offset="0.41" stop-color="#CFC54D"/>
<stop offset="0.58" stop-color="#ADC473"/>
<stop offset="0.77" stop-color="#83C4A3"/>
<stop offset="0.96" stop-color="#4FC3DD"/>
<stop offset="1" stop-color="#43C3EB"/>
</linearGradient>
<linearGradient id="paint2_linear_855_10755" x1="8.23926" y1="44.8492" x2="14.123" y2="44.8492" gradientUnits="userSpaceOnUse">
<stop offset="0.01" stop-color="#43C3EB"/>
<stop offset="0.28" stop-color="#37A7D8"/>
<stop offset="0.88" stop-color="#1761A9"/>
<stop offset="1" stop-color="#10529F"/>
</linearGradient>
<linearGradient id="paint3_linear_855_10755" x1="20" y1="17" x2="46" y2="16.5" gradientUnits="userSpaceOnUse">
<stop stop-color="#FAC51C"/>
<stop offset="0.11" stop-color="#F5C522"/>
<stop offset="0.25" stop-color="#E6C532"/>
<stop offset="0.41" stop-color="#CFC54D"/>
<stop offset="0.58" stop-color="#ADC473"/>
<stop offset="0.77" stop-color="#83C4A3"/>
<stop offset="0.96" stop-color="#4FC3DD"/>
<stop offset="1" stop-color="#43C3EB"/>
</linearGradient>
<linearGradient id="paint4_linear_855_10755" x1="55.0205" y1="42.7656" x2="50.0205" y2="42.7656" gradientUnits="userSpaceOnUse">
<stop offset="0.01" stop-color="#43C3EB"/>
<stop offset="0.28" stop-color="#37A7D8"/>
<stop offset="0.88" stop-color="#1761A9"/>
<stop offset="1" stop-color="#10529F"/>
</linearGradient>
<linearGradient id="paint5_linear_855_10755" x1="19.7049" y1="34.2247" x2="42.89" y2="51.8137" gradientUnits="userSpaceOnUse">
<stop stop-color="#FBC41D"/>
<stop offset="1" stop-color="#EF5C24"/>
</linearGradient>
</defs>
</svg>
