<svg width="60" height="51" viewBox="0 0 60 51" fill="none" xmlns="http://www.w3.org/2000/svg">
<path d="M55.393 0.467773H4.56662C3.3555 0.467773 2.19398 0.958449 1.33759 1.83186C0.481196 2.70526 7.99512e-05 3.88986 7.99512e-05 5.12504V37.1197C-0.00348198 37.7336 0.112006 38.3421 0.339901 38.9104C0.567796 39.4786 0.9036 39.9953 1.328 40.4307C1.75239 40.8661 2.25701 41.2116 2.81282 41.4474C3.36862 41.6831 3.96465 41.8045 4.56662 41.8045H37.5051L48.7999 50.0718C48.9193 50.1679 49.0647 50.2244 49.2165 50.2335C49.3684 50.2426 49.5193 50.204 49.6489 50.1229C49.7786 50.0418 49.8807 49.922 49.9414 49.7798C50.0022 49.6376 50.0188 49.4798 49.9888 49.3278L48.0028 41.8045H55.393C55.9921 41.8045 56.5852 41.6839 57.1385 41.4497C57.6918 41.2155 58.1943 40.8722 58.6173 40.4396C59.0402 40.0069 59.3753 39.4934 59.6033 38.9284C59.8314 38.3635 59.9478 37.7582 59.946 37.1472V5.12504C59.9478 4.51409 59.8314 3.90879 59.6033 3.34382C59.3753 2.77886 59.0402 2.26534 58.6173 1.83269C58.1943 1.40004 57.6918 1.05677 57.1385 0.822552C56.5852 0.588333 55.9921 0.467771 55.393 0.467773V0.467773ZM13.8348 23.7128C13.1213 23.7128 12.4239 23.497 11.8307 23.0928C11.2375 22.6885 10.7751 22.1139 10.5021 21.4417C10.2291 20.7695 10.1576 20.0297 10.2968 19.3161C10.436 18.6024 10.7796 17.9469 11.2841 17.4324C11.7885 16.9179 12.4313 16.5675 13.1311 16.4255C13.8308 16.2836 14.5561 16.3564 15.2153 16.6349C15.8744 16.9133 16.4378 17.3849 16.8342 17.9899C17.2305 18.5949 17.4421 19.3062 17.4421 20.0338C17.4421 21.0095 17.062 21.9453 16.3855 22.6352C15.709 23.3252 14.7915 23.7128 13.8348 23.7128ZM30.0474 23.7128C29.3339 23.7128 28.6365 23.497 28.0433 23.0928C27.45 22.6885 26.9877 22.1139 26.7147 21.4417C26.4416 20.7695 26.3702 20.0297 26.5094 19.3161C26.6486 18.6024 26.9921 17.9469 27.4966 17.4324C28.0011 16.9179 28.6439 16.5675 29.3436 16.4255C30.0434 16.2836 30.7687 16.3564 31.4278 16.6349C32.087 16.9133 32.6503 17.3849 33.0467 17.9899C33.4431 18.5949 33.6547 19.3062 33.6547 20.0338C33.6547 20.5204 33.5601 21.0022 33.3762 21.4513C33.1924 21.9004 32.9231 22.3078 32.5838 22.65C32.2445 22.9921 31.8421 23.2623 31.3997 23.4447C30.9574 23.6271 30.4839 23.7183 30.0068 23.7128H30.0474ZM46.2599 23.7128C45.5465 23.7128 44.849 23.497 44.2558 23.0928C43.6626 22.6885 43.2003 22.1139 42.9272 21.4417C42.6542 20.7695 42.5828 20.0297 42.7219 19.3161C42.8611 18.6024 43.2047 17.9469 43.7092 17.4324C44.2137 16.9179 44.8564 16.5675 45.5562 16.4255C46.2559 16.2836 46.9812 16.3564 47.6404 16.6349C48.2995 16.9133 48.8629 17.3849 49.2593 17.9899C49.6557 18.5949 49.8672 19.3062 49.8672 20.0338C49.8674 20.524 49.7714 21.0092 49.5851 21.4611C49.3988 21.9129 49.1258 22.3222 48.7822 22.6649C48.4386 23.0076 48.0313 23.2769 47.5842 23.4568C47.1372 23.6368 46.6594 23.7238 46.1789 23.7128H46.2599Z" fill="url(#paint0_linear_641_983)"/>
<defs>
<linearGradient id="paint0_linear_641_983" x1="-1.29693" y1="31.2498" x2="62.7636" y2="18.2203" gradientUnits="userSpaceOnUse">
<stop stop-color="#FAC51C"/>
<stop offset="0.16" stop-color="#F9B91D"/>
<stop offset="0.45" stop-color="#F59A1F"/>
<stop offset="0.83" stop-color="#F06923"/>
<stop offset="1" stop-color="#ED5125"/>
</linearGradient>
</defs>
</svg>
