<svg width="56" height="57" viewBox="0 0 56 57" fill="none" xmlns="http://www.w3.org/2000/svg">
<g clip-path="url(#clip0_641_1006)">
<path d="M1.5163e-06 15.6482V44.7014C0.00566413 44.8287 0.0482953 44.952 0.12307 45.0573C0.197844 45.1625 0.301775 45.2456 0.423099 45.297L25.7787 56.3953C25.8895 56.4479 26.0121 56.4736 26.1356 56.4701C26.2591 56.4666 26.3799 56.434 26.4873 56.3753C26.5946 56.3165 26.6854 56.2333 26.7515 56.1329C26.8177 56.0326 26.8572 55.9181 26.8667 55.7997V26.6158C26.8667 26.4871 26.8264 26.3614 26.7509 26.2551C26.6754 26.1489 26.5683 26.067 26.4436 26.0202L1.08797 14.9945C0.972665 14.9402 0.844868 14.915 0.71664 14.9214C0.588411 14.9277 0.463982 14.9654 0.355101 15.0308C0.246219 15.0962 0.156476 15.1873 0.094345 15.2953C0.0322139 15.4033 -0.000255693 15.5248 1.5163e-06 15.6482Z" fill="url(#paint0_linear_641_1006)"/>
<path d="M29.6777 26.4994V55.7995C29.6872 55.918 29.7267 56.0324 29.7929 56.1328C29.859 56.2331 29.9498 56.3163 30.0572 56.3751C30.1646 56.4339 30.2853 56.4665 30.4088 56.4699C30.5324 56.4734 30.6549 56.4478 30.7657 56.3951L55.5925 45.5002C55.7156 45.4528 55.8206 45.3703 55.8936 45.2639C55.9665 45.1574 56.0038 45.032 56.0005 44.9046V15.6626C55.9933 15.5429 55.9555 15.4267 55.8903 15.3245C55.8251 15.2223 55.7346 15.1371 55.6269 15.0767C55.5191 15.0163 55.3975 14.9825 55.2728 14.9782C55.1482 14.974 55.0244 14.9995 54.9125 15.0525L30.0857 25.9038C29.9662 25.9559 29.8644 26.0395 29.7922 26.1449C29.72 26.2503 29.6803 26.3732 29.6777 26.4994Z" fill="url(#paint1_linear_641_1006)"/>
<path d="M27.8336 23.6231L3.02192 12.5538C2.89489 12.5033 2.78632 12.4176 2.70993 12.3077C2.63355 12.1978 2.59277 12.0686 2.59277 11.9365C2.59277 11.8043 2.63355 11.6751 2.70993 11.5652C2.78632 11.4553 2.89489 11.3696 3.02192 11.3191L27.8336 0.540352C27.9394 0.490355 28.0557 0.464355 28.1736 0.464355C28.2914 0.464355 28.4078 0.490355 28.5136 0.540352L53.703 11.4643C53.83 11.5149 53.9386 11.6006 54.015 11.7105C54.0914 11.8204 54.1321 11.9496 54.1321 12.0817C54.1321 12.2139 54.0914 12.3431 54.015 12.453C53.9386 12.5629 53.83 12.6485 53.703 12.6991L28.5287 23.6231C28.4202 23.6733 28.3015 23.6994 28.1811 23.6994C28.0608 23.6994 27.942 23.6733 27.8336 23.6231Z" fill="url(#paint2_linear_641_1006)"/>
</g>
<defs>
<linearGradient id="paint0_linear_641_1006" x1="1.5163e-06" y1="35.7239" x2="26.8667" y2="35.7239" gradientUnits="userSpaceOnUse">
<stop offset="0.01" stop-color="#43C3EB"/>
<stop offset="0.28" stop-color="#37A7D8"/>
<stop offset="0.88" stop-color="#1761A9"/>
<stop offset="1" stop-color="#10529F"/>
</linearGradient>
<linearGradient id="paint1_linear_641_1006" x1="29.6777" y1="35.7238" x2="56.0005" y2="35.7238" gradientUnits="userSpaceOnUse">
<stop stop-color="#FAC51C"/>
<stop offset="0.11" stop-color="#F5C522"/>
<stop offset="0.25" stop-color="#E6C532"/>
<stop offset="0.41" stop-color="#CFC54D"/>
<stop offset="0.58" stop-color="#ADC473"/>
<stop offset="0.77" stop-color="#83C4A3"/>
<stop offset="0.96" stop-color="#4FC3DD"/>
<stop offset="1" stop-color="#43C3EB"/>
</linearGradient>
<linearGradient id="paint2_linear_641_1006" x1="2.55349" y1="12.089" x2="54.1412" y2="12.089" gradientUnits="userSpaceOnUse">
<stop stop-color="#FAC51C"/>
<stop offset="0.16" stop-color="#F9B91D"/>
<stop offset="0.45" stop-color="#F59A1F"/>
<stop offset="0.83" stop-color="#F06923"/>
<stop offset="1" stop-color="#ED5125"/>
</linearGradient>
<clipPath id="clip0_641_1006">
<rect width="56" height="56" fill="white" transform="translate(0 0.467773)"/>
</clipPath>
</defs>
</svg>
