<svg width="67" height="34" viewBox="0 0 67 34" fill="none" xmlns="http://www.w3.org/2000/svg">
<g clip-path="url(#clip0_641_993)">
<path d="M41.7815 33.3991V33.4742C41.7815 33.7425 41.633 33.9678 41.3997 33.9678H25.6094C25.3337 33.9678 25.2383 33.6459 25.2277 33.3347C25.2171 33.1346 25.2171 32.934 25.2277 32.7338C25.414 30.5861 26.4113 28.5936 28.0121 27.1707C29.613 25.7478 31.6942 25.0039 33.8231 25.0937C35.9521 25.1835 37.9649 26.1001 39.4431 27.6529C40.9213 29.2057 41.7512 31.2753 41.7603 33.4313L41.7815 33.3991Z" fill="url(#paint0_linear_641_993)"/>
<path d="M54.2213 33.9674H50.2657C50.0722 33.965 49.8868 33.8883 49.747 33.7529C49.6073 33.6174 49.5236 33.4333 49.5128 33.2378C49.2182 29.1443 47.4032 25.3153 44.4326 22.5205C41.462 19.7257 37.5561 18.1722 33.4998 18.1722C29.4436 18.1722 25.5376 19.7257 22.5671 22.5205C19.5965 25.3153 17.7815 29.1443 17.4869 33.2378C17.4761 33.4333 17.3924 33.6174 17.2526 33.7529C17.1129 33.8883 16.9275 33.965 16.7339 33.9674H12.7784C12.675 33.9691 12.5723 33.9491 12.4768 33.9088C12.3813 33.8685 12.2951 33.8088 12.2234 33.7333C12.1518 33.6578 12.0963 33.5681 12.0604 33.4699C12.0245 33.3718 12.009 33.2672 12.0149 33.1626C12.3372 27.6165 14.7417 22.4045 18.7365 18.593C22.7313 14.7816 28.0145 12.6587 33.5051 12.6587C38.9958 12.6587 44.279 14.7816 48.2738 18.593C52.2686 22.4045 54.6731 27.6165 54.9954 33.1626C54.9982 33.2673 54.9803 33.3715 54.9427 33.469C54.905 33.5665 54.8485 33.6554 54.7763 33.7305C54.7041 33.8055 54.6178 33.8651 54.5225 33.9058C54.4272 33.9465 54.3247 33.9675 54.2213 33.9674Z" fill="url(#paint1_linear_641_993)"/>
<path d="M66.1088 33.9676H62.3972C62.1682 33.965 61.949 33.8733 61.7851 33.7114C61.6212 33.5496 61.5252 33.3301 61.517 33.0985C61.1738 25.8134 58.0721 18.9417 52.8554 13.9088C47.6388 8.87589 40.7075 6.06822 33.4996 6.06822C26.2917 6.06822 19.3604 8.87589 14.1437 13.9088C8.92706 18.9417 5.82538 25.8134 5.48218 33.0985C5.47402 33.3301 5.37802 33.5496 5.21411 33.7114C5.05021 33.8733 4.831 33.965 4.602 33.9676H0.89038C0.770674 33.9677 0.652181 33.9434 0.541978 33.8961C0.431775 33.8488 0.332124 33.7795 0.248977 33.6924C0.16583 33.6052 0.100893 33.502 0.058045 33.3889C0.0151968 33.2758 -0.00468347 33.1551 -0.000408238 33.0341C0.375883 24.2996 4.06979 16.0493 10.3111 10.0033C16.5523 3.95735 24.8592 0.58252 33.4996 0.58252C42.14 0.58252 50.4468 3.95735 56.6881 10.0033C62.9294 16.0493 66.6233 24.2996 66.9996 33.0341C67.0039 33.1551 66.984 33.2758 66.9411 33.3889C66.8983 33.502 66.8333 33.6052 66.7502 33.6924C66.6671 33.7795 66.5674 33.8488 66.4572 33.8961C66.347 33.9434 66.2285 33.9677 66.1088 33.9676Z" fill="url(#paint2_linear_641_993)"/>
</g>
<defs>
<linearGradient id="paint0_linear_641_993" x1="25.2171" y1="29.4933" x2="41.7815" y2="29.4933" gradientUnits="userSpaceOnUse">
<stop offset="0.01" stop-color="#43C3EB"/>
<stop offset="0.28" stop-color="#37A7D8"/>
<stop offset="0.88" stop-color="#1761A9"/>
<stop offset="1" stop-color="#10529F"/>
</linearGradient>
<linearGradient id="paint1_linear_641_993" x1="12.0043" y1="23.2908" x2="54.9954" y2="23.2908" gradientUnits="userSpaceOnUse">
<stop stop-color="#FAC51C"/>
<stop offset="0.16" stop-color="#F9B91D"/>
<stop offset="0.45" stop-color="#F59A1F"/>
<stop offset="0.83" stop-color="#F06923"/>
<stop offset="1" stop-color="#ED5125"/>
</linearGradient>
<linearGradient id="paint2_linear_641_993" x1="-0.000408238" y1="17.2176" x2="66.9996" y2="17.2176" gradientUnits="userSpaceOnUse">
<stop stop-color="#FAC51C"/>
<stop offset="0.16" stop-color="#F9B91D"/>
<stop offset="0.45" stop-color="#F59A1F"/>
<stop offset="0.83" stop-color="#F06923"/>
<stop offset="1" stop-color="#ED5125"/>
</linearGradient>
<clipPath id="clip0_641_993">
<rect width="67" height="33.5" fill="white" transform="translate(0 0.467773)"/>
</clipPath>
</defs>
</svg>
